<svg width="183" height="31" viewBox="0 0 183 31" fill="none" xmlns="http://www.w3.org/2000/svg">
<path d="M4.024 30.276C3.784 30.276 3.4 30.24 2.872 30.168C2.368 30.096 1.9 29.94 1.468 29.7C1.036 29.46 0.82 29.088 0.82 28.584C0.82 28.272 0.892 28.032 1.036 27.864C1.132 27.744 1.228 27.684 1.324 27.684C1.42 27.684 1.444 27.744 1.396 27.864C1.324 28.224 1.456 28.56 1.792 28.872C2.128 29.208 2.464 29.424 2.8 29.52C3.28 29.64 3.7 29.7 4.06 29.7C5.116 29.7 6.064 29.4 6.904 28.8C7.768 28.2 8.536 27.504 9.208 26.712C8.296 26.16 7.492 25.5 6.796 24.732C6.124 23.94 5.788 23.064 5.788 22.104C5.788 21.72 5.836 21.372 5.932 21.06C6.172 20.244 6.688 19.596 7.48 19.116C7.72 18.972 7.972 18.876 8.236 18.828C8.524 18.756 8.812 18.72 9.1 18.72C10.036 18.72 10.696 18.936 11.08 19.368V19.404C11.08 19.452 11.032 19.512 10.936 19.584C10.864 19.656 10.804 19.668 10.756 19.62C10.588 19.38 10.288 19.26 9.856 19.26C9.328 19.26 8.812 19.44 8.308 19.8C7.828 20.16 7.516 20.604 7.372 21.132C7.228 21.588 7.156 22.044 7.156 22.5C7.156 23.316 7.384 24.036 7.84 24.66C8.32 25.26 8.896 25.788 9.568 26.244C9.76 26.004 9.928 25.764 10.072 25.524C10.24 25.284 10.408 25.044 10.576 24.804C11.296 23.7 12.004 22.44 12.7 21.024C13.396 19.608 14.116 18.156 14.86 16.668C15.604 15.156 16.384 13.692 17.2 12.276C18.04 10.86 18.952 9.6 19.936 8.496C20.92 7.368 22 6.504 23.176 5.904C23.944 5.496 24.676 5.292 25.372 5.292C25.756 5.292 26.104 5.34 26.416 5.436C26.512 5.46 26.536 5.52 26.488 5.616C26.464 5.712 26.404 5.748 26.308 5.724C26.212 5.676 26.104 5.652 25.984 5.652C25.888 5.652 25.78 5.652 25.66 5.652C24.412 5.652 23.104 6.456 21.736 8.064C20.68 9.312 19.768 10.644 19 12.06C18.232 13.452 17.524 14.892 16.876 16.38C16.228 17.844 15.556 19.296 14.86 20.736C14.188 22.176 13.384 23.556 12.448 24.876C12.208 25.236 11.944 25.584 11.656 25.92C11.392 26.256 11.116 26.58 10.828 26.892C11.164 27.036 11.512 27.156 11.872 27.252C12.256 27.348 12.604 27.432 12.916 27.504C13.996 27.72 15.1 27.828 16.228 27.828C17.788 27.828 19.3 27.648 20.764 27.288C22.252 26.952 23.56 26.484 24.688 25.884C26.224 25.068 27.592 23.94 28.792 22.5C29.992 21.06 30.94 19.464 31.636 17.712C32.356 15.96 32.716 14.22 32.716 12.492C32.716 10.764 32.308 9.144 31.492 7.632C30.676 6.096 29.32 4.848 27.424 3.888C26.248 3.288 24.94 2.856 23.5 2.592C22.084 2.304 20.656 2.16 19.216 2.16C17.176 2.16 15.196 2.496 13.276 3.168C11.38 3.816 9.832 4.704 8.632 5.832C8.008 6.432 7.444 7.236 6.94 8.244C6.46 9.252 6.22 10.248 6.22 11.232C6.22 11.448 6.232 11.664 6.256 11.88C6.28 12.096 6.328 12.312 6.4 12.528C6.616 13.2 7.024 13.716 7.624 14.076C8.248 14.412 8.956 14.58 9.748 14.58C10.348 14.58 10.972 14.472 11.62 14.256C11.644 14.256 11.656 14.256 11.656 14.256C11.68 14.232 11.704 14.22 11.728 14.22C11.776 14.22 11.8 14.244 11.8 14.292C11.8 14.412 11.728 14.496 11.584 14.544C11.248 14.64 10.888 14.724 10.504 14.796C10.144 14.868 9.784 14.904 9.424 14.904C8.656 14.904 7.912 14.772 7.192 14.508C6.472 14.22 5.884 13.776 5.428 13.176C4.996 12.576 4.78 11.808 4.78 10.872C4.78 10.128 4.888 9.432 5.104 8.784C5.32 8.136 5.62 7.524 6.004 6.948C6.796 5.772 7.912 4.8 9.352 4.032C10.816 3.24 12.424 2.652 14.176 2.268C15.952 1.86 17.704 1.656 19.432 1.656C20.896 1.656 22.36 1.8 23.824 2.088C25.288 2.352 26.68 2.76 28 3.312C30.4 4.344 32.128 5.736 33.184 7.488C34.264 9.216 34.804 11.064 34.804 13.032C34.804 14.856 34.396 16.68 33.58 18.504C32.788 20.304 31.672 21.948 30.232 23.436C28.816 24.9 27.16 26.064 25.264 26.928C24.088 27.456 22.804 27.852 21.412 28.116C20.044 28.38 18.652 28.512 17.236 28.512C16.42 28.512 15.616 28.464 14.824 28.368C14.032 28.296 13.252 28.176 12.484 28.008C12.172 27.936 11.836 27.84 11.476 27.72C11.116 27.624 10.756 27.492 10.396 27.324C9.964 27.708 9.508 28.08 9.028 28.44C8.572 28.824 8.08 29.148 7.552 29.412C7 29.676 6.424 29.88 5.824 30.024C5.248 30.192 4.648 30.276 4.024 30.276ZM33.5699 26.784C33.4259 26.952 33.2819 27.036 33.1379 27.036C33.0419 27.036 32.9819 27 32.9579 26.928C32.9339 26.832 32.9579 26.736 33.0299 26.64C33.4379 26.184 33.9299 25.56 34.5059 24.768C35.0819 23.976 35.6579 23.1 36.2339 22.14C36.8099 21.18 37.3139 20.196 37.7459 19.188C38.1779 18.156 38.4419 17.172 38.5379 16.236C37.9859 15.924 37.6139 15.384 37.4219 14.616C37.3979 14.496 37.3739 14.388 37.3499 14.292C37.3499 14.172 37.3499 14.064 37.3499 13.968C37.3499 13.536 37.4339 13.176 37.6019 12.888C37.7939 12.576 38.0099 12.42 38.2499 12.42C38.5859 12.42 38.8619 12.744 39.0779 13.392C39.1259 13.56 39.1619 13.752 39.1859 13.968C39.2099 14.16 39.2219 14.352 39.2219 14.544C39.2219 14.76 39.2099 14.964 39.1859 15.156C39.1859 15.324 39.1739 15.468 39.1499 15.588C39.3179 15.636 39.5339 15.672 39.7979 15.696C40.0859 15.72 40.3979 15.732 40.7339 15.732C41.2379 15.732 41.7659 15.72 42.3179 15.696C42.8699 15.648 43.3379 15.624 43.7219 15.624C44.1779 15.624 44.4899 15.72 44.6579 15.912C44.8259 16.104 44.9099 16.344 44.9099 16.632C44.9099 16.992 44.8139 17.388 44.6219 17.82C44.4539 18.228 44.2859 18.576 44.1179 18.864C43.8059 19.44 43.5059 19.956 43.2179 20.412C42.9539 20.844 42.6539 21.312 42.3179 21.816C41.8139 22.584 41.4419 23.292 41.2019 23.94C40.9859 24.564 40.8779 25.092 40.8779 25.524C40.8779 26.268 41.1539 26.64 41.7059 26.64C42.1619 26.64 42.7499 26.316 43.4699 25.668C43.9259 25.26 44.3459 24.78 44.7299 24.228C45.1379 23.652 45.4979 23.076 45.8099 22.5C46.1459 21.9 46.4219 21.408 46.6379 21.024C46.6859 20.952 46.7339 20.916 46.7819 20.916C46.8779 20.916 46.9259 21.012 46.9259 21.204C46.9259 21.348 46.8899 21.48 46.8179 21.6C46.4099 22.344 45.9419 23.16 45.4139 24.048C44.8859 24.936 44.2379 25.704 43.4699 26.352C43.0619 26.688 42.6539 26.928 42.2459 27.072C41.8619 27.24 41.5019 27.324 41.1659 27.324C40.5659 27.324 40.0619 27.12 39.6539 26.712C39.2699 26.28 39.0779 25.716 39.0779 25.02C39.0779 24.612 39.1739 24.12 39.3659 23.544C39.6779 22.68 40.1459 21.852 40.7699 21.06C41.3939 20.268 41.9939 19.464 42.5699 18.648C42.9299 18.168 43.1099 17.7 43.1099 17.244C43.1099 17.004 43.0379 16.8 42.8939 16.632C42.7739 16.464 42.5459 16.368 42.2099 16.344C42.0179 16.296 41.8019 16.272 41.5619 16.272C41.3219 16.272 41.0819 16.272 40.8419 16.272H39.8339C39.6899 16.272 39.5579 16.272 39.4379 16.272C39.3179 16.272 39.2099 16.26 39.1139 16.236C38.9939 17.148 38.7059 18.132 38.2499 19.188C37.8179 20.22 37.3019 21.24 36.7019 22.248C36.1259 23.256 35.5499 24.156 34.9739 24.948C34.4219 25.74 33.9539 26.352 33.5699 26.784ZM49.87 27.288C48.478 27.288 47.494 26.928 46.918 26.208C46.63 25.896 46.426 25.524 46.306 25.092C46.186 24.66 46.126 24.216 46.126 23.76C46.126 23.184 46.198 22.608 46.342 22.032C46.486 21.432 46.666 20.88 46.882 20.376C47.218 19.584 47.662 18.792 48.214 18C48.766 17.184 49.426 16.5 50.194 15.948C50.986 15.396 51.85 15.12 52.786 15.12C53.41 15.12 53.902 15.276 54.262 15.588C54.622 15.9 54.802 16.38 54.802 17.028C54.802 17.772 54.574 18.528 54.118 19.296C53.662 20.04 53.086 20.664 52.39 21.168C51.694 21.672 50.974 21.924 50.23 21.924C49.558 21.924 48.97 21.684 48.466 21.204C48.322 21.588 48.202 22.02 48.106 22.5C48.01 22.956 47.962 23.424 47.962 23.904C47.962 24.648 48.106 25.296 48.394 25.848C48.706 26.4 49.258 26.676 50.05 26.676C50.626 26.676 51.178 26.532 51.706 26.244C52.258 25.932 52.75 25.56 53.182 25.128C53.662 24.624 54.118 24.084 54.55 23.508C54.982 22.932 55.402 22.26 55.81 21.492C55.858 21.42 55.894 21.384 55.918 21.384C56.014 21.384 56.062 21.492 56.062 21.708C56.062 21.852 56.014 22.008 55.918 22.176C55.558 22.824 55.138 23.484 54.658 24.156C54.178 24.804 53.686 25.368 53.182 25.848C52.726 26.28 52.234 26.628 51.706 26.892C51.178 27.156 50.566 27.288 49.87 27.288ZM48.646 20.664C48.814 20.904 49.006 21.084 49.222 21.204C49.462 21.3 49.702 21.348 49.942 21.348C50.518 21.348 51.118 21.132 51.742 20.7C52.366 20.244 52.87 19.716 53.254 19.116C53.422 18.852 53.566 18.504 53.686 18.072C53.83 17.64 53.902 17.232 53.902 16.848C53.902 16.512 53.83 16.224 53.686 15.984C53.566 15.72 53.314 15.588 52.93 15.588C52.498 15.588 51.982 15.852 51.382 16.38C50.806 16.908 50.254 17.592 49.726 18.432C49.558 18.72 49.366 19.056 49.15 19.44C48.958 19.824 48.79 20.232 48.646 20.664ZM63.5039 27.252C62.7359 27.252 62.2079 27.012 61.9199 26.532C61.6319 26.028 61.4879 25.476 61.4879 24.876C61.4879 24.756 61.4999 24.552 61.5239 24.264C61.5719 23.952 61.6199 23.664 61.6679 23.4C61.3319 23.856 60.9239 24.36 60.4439 24.912C59.9879 25.464 59.5199 25.932 59.0399 26.316C58.2719 26.94 57.5759 27.252 56.9519 27.252C56.3519 27.252 55.8839 27 55.5479 26.496C55.2359 25.992 55.0799 25.356 55.0799 24.588C55.0799 23.604 55.2959 22.608 55.7279 21.6C56.1599 20.592 56.7239 19.644 57.4199 18.756C58.1399 17.844 58.9319 17.064 59.7959 16.416C60.2999 16.056 60.9119 15.768 61.6319 15.552C62.3759 15.312 63.1199 15.192 63.8639 15.192C64.7039 15.192 65.4359 15.324 66.0599 15.588C66.7079 15.828 67.1519 16.176 67.3919 16.632C66.8879 17.28 66.3719 18.084 65.8439 19.044C65.3159 19.98 64.8599 20.832 64.4759 21.6C64.2119 22.128 63.9239 22.788 63.6119 23.58C63.2999 24.348 63.1439 25.008 63.1439 25.56C63.1439 25.8 63.2039 26.04 63.3239 26.28C63.4439 26.52 63.6719 26.64 64.0079 26.64C64.3919 26.64 64.7639 26.496 65.1239 26.208C65.4839 25.92 65.7839 25.632 66.0239 25.344C66.5759 24.744 67.0799 24.084 67.5359 23.364C67.9919 22.644 68.4479 21.876 68.9039 21.06C68.9759 20.964 69.0479 20.916 69.1199 20.916C69.2159 20.916 69.2639 20.988 69.2639 21.132C69.2639 21.252 69.2399 21.348 69.1919 21.42C68.7839 22.212 68.3279 23.004 67.8239 23.796C67.3199 24.588 66.7199 25.332 66.0239 26.028C65.6879 26.364 65.2919 26.652 64.8359 26.892C64.3799 27.132 63.9359 27.252 63.5039 27.252ZM57.7439 26.136C58.1999 26.136 58.6919 25.896 59.2199 25.416C59.7719 24.912 60.2999 24.312 60.8039 23.616C61.3319 22.896 61.7999 22.212 62.2079 21.564C62.6399 20.892 62.9759 20.376 63.2159 20.016C63.7199 19.224 64.1879 18.564 64.6199 18.036C65.0519 17.508 65.7239 17.1 66.6359 16.812C66.6839 16.812 66.7199 16.812 66.7439 16.812C66.7919 16.788 66.8399 16.776 66.8879 16.776C66.6719 16.44 66.3119 16.188 65.8079 16.02C65.3039 15.852 64.8119 15.768 64.3319 15.768C63.5879 15.768 62.8679 15.972 62.1719 16.38C61.4759 16.788 60.8399 17.304 60.2639 17.928C59.7119 18.576 59.1719 19.284 58.6439 20.052C58.1159 20.82 57.6839 21.6 57.3479 22.392C57.0359 23.184 56.8799 23.94 56.8799 24.66C56.8799 25.044 56.9399 25.392 57.0599 25.704C57.2039 25.992 57.4319 26.136 57.7439 26.136ZM82.1311 27.216C81.4111 27.216 80.8591 27 80.4751 26.568C80.0911 26.112 79.8991 25.548 79.8991 24.876C79.8991 24.132 80.0911 23.388 80.4751 22.644C80.8591 21.876 81.2911 21.132 81.7711 20.412C82.2751 19.692 82.7191 19.008 83.1031 18.36C83.4871 17.712 83.6791 17.136 83.6791 16.632C83.6791 16.44 83.6311 16.272 83.5351 16.128C83.4391 15.96 83.2591 15.876 82.9951 15.876C82.2271 15.876 81.4231 16.236 80.5831 16.956C79.7671 17.652 78.9751 18.552 78.2071 19.656C77.4391 20.76 76.7431 21.912 76.1191 23.112C75.5191 24.312 75.0511 25.416 74.7151 26.424C74.3311 26.328 74.0671 26.184 73.9231 25.992C73.8031 25.776 73.7431 25.548 73.7431 25.308C73.7431 24.924 73.7911 24.552 73.8871 24.192C74.0071 23.832 74.1871 23.388 74.4271 22.86C74.6671 22.332 74.9791 21.66 75.3631 20.844C75.7471 20.004 76.2031 18.924 76.7311 17.604C76.8031 17.412 76.8511 17.244 76.8751 17.1C76.8991 16.956 76.9111 16.824 76.9111 16.704C76.9111 16.152 76.6831 15.876 76.2271 15.876C75.6511 15.876 75.0631 16.116 74.4631 16.596C73.8631 17.052 73.2751 17.664 72.6991 18.432C72.1471 19.2 71.6191 20.028 71.1151 20.916C70.6111 21.804 70.1551 22.68 69.7471 23.544C69.3391 24.384 69.0031 25.116 68.7391 25.74C68.4991 26.292 68.2111 26.652 67.8751 26.82C67.5391 26.964 67.2151 27.036 66.9031 27.036C66.8071 27.036 66.6871 27.024 66.5431 27C66.4231 27 66.3031 27 66.1831 27C66.6631 26.04 67.1671 24.996 67.6951 23.868C68.2471 22.716 68.7511 21.564 69.2071 20.412C69.6631 19.26 70.0351 18.156 70.3231 17.1C70.6111 16.044 70.7551 15.132 70.7551 14.364C70.7551 14.268 70.7431 14.196 70.7191 14.148C70.7191 14.1 70.7191 14.052 70.7191 14.004C70.7191 13.932 70.7431 13.896 70.7911 13.896C71.0311 13.896 71.2231 14.052 71.3671 14.364C71.5111 14.652 71.6071 14.988 71.6551 15.372C71.7271 15.732 71.7631 16.02 71.7631 16.236C71.7631 16.836 71.6911 17.46 71.5471 18.108C71.4031 18.732 71.2351 19.26 71.0431 19.692C71.9551 18.468 72.8911 17.424 73.8511 16.56C74.8351 15.696 75.8071 15.264 76.7671 15.264C77.4151 15.264 77.8831 15.396 78.1711 15.66C78.4591 15.924 78.6031 16.296 78.6031 16.776C78.6031 17.112 78.5431 17.448 78.4231 17.784C78.3271 18.12 78.1591 18.576 77.9191 19.152C78.8311 17.904 79.7191 16.944 80.5831 16.272C81.4711 15.6 82.3471 15.264 83.2111 15.264C83.9071 15.264 84.4231 15.42 84.7591 15.732C85.1191 16.044 85.2991 16.464 85.2991 16.992C85.2991 17.568 85.1071 18.252 84.7231 19.044C84.3631 19.812 83.9431 20.616 83.4631 21.456C82.9831 22.272 82.5511 23.052 82.1671 23.796C81.8071 24.516 81.6271 25.116 81.6271 25.596C81.6271 25.86 81.6871 26.1 81.8071 26.316C81.9271 26.532 82.1431 26.64 82.4551 26.64C82.8631 26.64 83.2471 26.508 83.6071 26.244C83.9911 25.956 84.3151 25.656 84.5791 25.344C85.1311 24.744 85.6351 24.084 86.0911 23.364C86.5711 22.62 87.0391 21.84 87.4951 21.024C87.5671 20.928 87.6151 20.88 87.6391 20.88C87.7351 20.88 87.7831 20.988 87.7831 21.204C87.7831 21.348 87.7591 21.456 87.7111 21.528C87.2791 22.32 86.8231 23.1 86.3431 23.868C85.8631 24.612 85.2751 25.332 84.5791 26.028C84.2671 26.34 83.9071 26.616 83.4991 26.856C83.0911 27.096 82.6351 27.216 82.1311 27.216Z" fill="black"/>
<path d="M4.024 30.276C3.784 30.276 3.4 30.24 2.872 30.168C2.368 30.096 1.9 29.94 1.468 29.7C1.036 29.46 0.82 29.088 0.82 28.584C0.82 28.272 0.892 28.032 1.036 27.864C1.132 27.744 1.228 27.684 1.324 27.684C1.42 27.684 1.444 27.744 1.396 27.864C1.324 28.224 1.456 28.56 1.792 28.872C2.128 29.208 2.464 29.424 2.8 29.52C3.28 29.64 3.7 29.7 4.06 29.7C5.116 29.7 6.064 29.4 6.904 28.8C7.768 28.2 8.536 27.504 9.208 26.712C8.296 26.16 7.492 25.5 6.796 24.732C6.124 23.94 5.788 23.064 5.788 22.104C5.788 21.72 5.836 21.372 5.932 21.06C6.172 20.244 6.688 19.596 7.48 19.116C7.72 18.972 7.972 18.876 8.236 18.828C8.524 18.756 8.812 18.72 9.1 18.72C10.036 18.72 10.696 18.936 11.08 19.368V19.404C11.08 19.452 11.032 19.512 10.936 19.584C10.864 19.656 10.804 19.668 10.756 19.62C10.588 19.38 10.288 19.26 9.856 19.26C9.328 19.26 8.812 19.44 8.308 19.8C7.828 20.16 7.516 20.604 7.372 21.132C7.228 21.588 7.156 22.044 7.156 22.5C7.156 23.316 7.384 24.036 7.84 24.66C8.32 25.26 8.896 25.788 9.568 26.244C9.76 26.004 9.928 25.764 10.072 25.524C10.24 25.284 10.408 25.044 10.576 24.804C11.296 23.7 12.004 22.44 12.7 21.024C13.396 19.608 14.116 18.156 14.86 16.668C15.604 15.156 16.384 13.692 17.2 12.276C18.04 10.86 18.952 9.6 19.936 8.496C20.92 7.368 22 6.504 23.176 5.904C23.944 5.496 24.676 5.292 25.372 5.292C25.756 5.292 26.104 5.34 26.416 5.436C26.512 5.46 26.536 5.52 26.488 5.616C26.464 5.712 26.404 5.748 26.308 5.724C26.212 5.676 26.104 5.652 25.984 5.652C25.888 5.652 25.78 5.652 25.66 5.652C24.412 5.652 23.104 6.456 21.736 8.064C20.68 9.312 19.768 10.644 19 12.06C18.232 13.452 17.524 14.892 16.876 16.38C16.228 17.844 15.556 19.296 14.86 20.736C14.188 22.176 13.384 23.556 12.448 24.876C12.208 25.236 11.944 25.584 11.656 25.92C11.392 26.256 11.116 26.58 10.828 26.892C11.164 27.036 11.512 27.156 11.872 27.252C12.256 27.348 12.604 27.432 12.916 27.504C13.996 27.72 15.1 27.828 16.228 27.828C17.788 27.828 19.3 27.648 20.764 27.288C22.252 26.952 23.56 26.484 24.688 25.884C26.224 25.068 27.592 23.94 28.792 22.5C29.992 21.06 30.94 19.464 31.636 17.712C32.356 15.96 32.716 14.22 32.716 12.492C32.716 10.764 32.308 9.144 31.492 7.632C30.676 6.096 29.32 4.848 27.424 3.888C26.248 3.288 24.94 2.856 23.5 2.592C22.084 2.304 20.656 2.16 19.216 2.16C17.176 2.16 15.196 2.496 13.276 3.168C11.38 3.816 9.832 4.704 8.632 5.832C8.008 6.432 7.444 7.236 6.94 8.244C6.46 9.252 6.22 10.248 6.22 11.232C6.22 11.448 6.232 11.664 6.256 11.88C6.28 12.096 6.328 12.312 6.4 12.528C6.616 13.2 7.024 13.716 7.624 14.076C8.248 14.412 8.956 14.58 9.748 14.58C10.348 14.58 10.972 14.472 11.62 14.256C11.644 14.256 11.656 14.256 11.656 14.256C11.68 14.232 11.704 14.22 11.728 14.22C11.776 14.22 11.8 14.244 11.8 14.292C11.8 14.412 11.728 14.496 11.584 14.544C11.248 14.64 10.888 14.724 10.504 14.796C10.144 14.868 9.784 14.904 9.424 14.904C8.656 14.904 7.912 14.772 7.192 14.508C6.472 14.22 5.884 13.776 5.428 13.176C4.996 12.576 4.78 11.808 4.78 10.872C4.78 10.128 4.888 9.432 5.104 8.784C5.32 8.136 5.62 7.524 6.004 6.948C6.796 5.772 7.912 4.8 9.352 4.032C10.816 3.24 12.424 2.652 14.176 2.268C15.952 1.86 17.704 1.656 19.432 1.656C20.896 1.656 22.36 1.8 23.824 2.088C25.288 2.352 26.68 2.76 28 3.312C30.4 4.344 32.128 5.736 33.184 7.488C34.264 9.216 34.804 11.064 34.804 13.032C34.804 14.856 34.396 16.68 33.58 18.504C32.788 20.304 31.672 21.948 30.232 23.436C28.816 24.9 27.16 26.064 25.264 26.928C24.088 27.456 22.804 27.852 21.412 28.116C20.044 28.38 18.652 28.512 17.236 28.512C16.42 28.512 15.616 28.464 14.824 28.368C14.032 28.296 13.252 28.176 12.484 28.008C12.172 27.936 11.836 27.84 11.476 27.72C11.116 27.624 10.756 27.492 10.396 27.324C9.964 27.708 9.508 28.08 9.028 28.44C8.572 28.824 8.08 29.148 7.552 29.412C7 29.676 6.424 29.88 5.824 30.024C5.248 30.192 4.648 30.276 4.024 30.276ZM33.5699 26.784C33.4259 26.952 33.2819 27.036 33.1379 27.036C33.0419 27.036 32.9819 27 32.9579 26.928C32.9339 26.832 32.9579 26.736 33.0299 26.64C33.4379 26.184 33.9299 25.56 34.5059 24.768C35.0819 23.976 35.6579 23.1 36.2339 22.14C36.8099 21.18 37.3139 20.196 37.7459 19.188C38.1779 18.156 38.4419 17.172 38.5379 16.236C37.9859 15.924 37.6139 15.384 37.4219 14.616C37.3979 14.496 37.3739 14.388 37.3499 14.292C37.3499 14.172 37.3499 14.064 37.3499 13.968C37.3499 13.536 37.4339 13.176 37.6019 12.888C37.7939 12.576 38.0099 12.42 38.2499 12.42C38.5859 12.42 38.8619 12.744 39.0779 13.392C39.1259 13.56 39.1619 13.752 39.1859 13.968C39.2099 14.16 39.2219 14.352 39.2219 14.544C39.2219 14.76 39.2099 14.964 39.1859 15.156C39.1859 15.324 39.1739 15.468 39.1499 15.588C39.3179 15.636 39.5339 15.672 39.7979 15.696C40.0859 15.72 40.3979 15.732 40.7339 15.732C41.2379 15.732 41.7659 15.72 42.3179 15.696C42.8699 15.648 43.3379 15.624 43.7219 15.624C44.1779 15.624 44.4899 15.72 44.6579 15.912C44.8259 16.104 44.9099 16.344 44.9099 16.632C44.9099 16.992 44.8139 17.388 44.6219 17.82C44.4539 18.228 44.2859 18.576 44.1179 18.864C43.8059 19.44 43.5059 19.956 43.2179 20.412C42.9539 20.844 42.6539 21.312 42.3179 21.816C41.8139 22.584 41.4419 23.292 41.2019 23.94C40.9859 24.564 40.8779 25.092 40.8779 25.524C40.8779 26.268 41.1539 26.64 41.7059 26.64C42.1619 26.64 42.7499 26.316 43.4699 25.668C43.9259 25.26 44.3459 24.78 44.7299 24.228C45.1379 23.652 45.4979 23.076 45.8099 22.5C46.1459 21.9 46.4219 21.408 46.6379 21.024C46.6859 20.952 46.7339 20.916 46.7819 20.916C46.8779 20.916 46.9259 21.012 46.9259 21.204C46.9259 21.348 46.8899 21.48 46.8179 21.6C46.4099 22.344 45.9419 23.16 45.4139 24.048C44.8859 24.936 44.2379 25.704 43.4699 26.352C43.0619 26.688 42.6539 26.928 42.2459 27.072C41.8619 27.24 41.5019 27.324 41.1659 27.324C40.5659 27.324 40.0619 27.12 39.6539 26.712C39.2699 26.28 39.0779 25.716 39.0779 25.02C39.0779 24.612 39.1739 24.12 39.3659 23.544C39.6779 22.68 40.1459 21.852 40.7699 21.06C41.3939 20.268 41.9939 19.464 42.5699 18.648C42.9299 18.168 43.1099 17.7 43.1099 17.244C43.1099 17.004 43.0379 16.8 42.8939 16.632C42.7739 16.464 42.5459 16.368 42.2099 16.344C42.0179 16.296 41.8019 16.272 41.5619 16.272C41.3219 16.272 41.0819 16.272 40.8419 16.272H39.8339C39.6899 16.272 39.5579 16.272 39.4379 16.272C39.3179 16.272 39.2099 16.26 39.1139 16.236C38.9939 17.148 38.7059 18.132 38.2499 19.188C37.8179 20.22 37.3019 21.24 36.7019 22.248C36.1259 23.256 35.5499 24.156 34.9739 24.948C34.4219 25.74 33.9539 26.352 33.5699 26.784ZM49.87 27.288C48.478 27.288 47.494 26.928 46.918 26.208C46.63 25.896 46.426 25.524 46.306 25.092C46.186 24.66 46.126 24.216 46.126 23.76C46.126 23.184 46.198 22.608 46.342 22.032C46.486 21.432 46.666 20.88 46.882 20.376C47.218 19.584 47.662 18.792 48.214 18C48.766 17.184 49.426 16.5 50.194 15.948C50.986 15.396 51.85 15.12 52.786 15.12C53.41 15.12 53.902 15.276 54.262 15.588C54.622 15.9 54.802 16.38 54.802 17.028C54.802 17.772 54.574 18.528 54.118 19.296C53.662 20.04 53.086 20.664 52.39 21.168C51.694 21.672 50.974 21.924 50.23 21.924C49.558 21.924 48.97 21.684 48.466 21.204C48.322 21.588 48.202 22.02 48.106 22.5C48.01 22.956 47.962 23.424 47.962 23.904C47.962 24.648 48.106 25.296 48.394 25.848C48.706 26.4 49.258 26.676 50.05 26.676C50.626 26.676 51.178 26.532 51.706 26.244C52.258 25.932 52.75 25.56 53.182 25.128C53.662 24.624 54.118 24.084 54.55 23.508C54.982 22.932 55.402 22.26 55.81 21.492C55.858 21.42 55.894 21.384 55.918 21.384C56.014 21.384 56.062 21.492 56.062 21.708C56.062 21.852 56.014 22.008 55.918 22.176C55.558 22.824 55.138 23.484 54.658 24.156C54.178 24.804 53.686 25.368 53.182 25.848C52.726 26.28 52.234 26.628 51.706 26.892C51.178 27.156 50.566 27.288 49.87 27.288ZM48.646 20.664C48.814 20.904 49.006 21.084 49.222 21.204C49.462 21.3 49.702 21.348 49.942 21.348C50.518 21.348 51.118 21.132 51.742 20.7C52.366 20.244 52.87 19.716 53.254 19.116C53.422 18.852 53.566 18.504 53.686 18.072C53.83 17.64 53.902 17.232 53.902 16.848C53.902 16.512 53.83 16.224 53.686 15.984C53.566 15.72 53.314 15.588 52.93 15.588C52.498 15.588 51.982 15.852 51.382 16.38C50.806 16.908 50.254 17.592 49.726 18.432C49.558 18.72 49.366 19.056 49.15 19.44C48.958 19.824 48.79 20.232 48.646 20.664ZM63.5039 27.252C62.7359 27.252 62.2079 27.012 61.9199 26.532C61.6319 26.028 61.4879 25.476 61.4879 24.876C61.4879 24.756 61.4999 24.552 61.5239 24.264C61.5719 23.952 61.6199 23.664 61.6679 23.4C61.3319 23.856 60.9239 24.36 60.4439 24.912C59.9879 25.464 59.5199 25.932 59.0399 26.316C58.2719 26.94 57.5759 27.252 56.9519 27.252C56.3519 27.252 55.8839 27 55.5479 26.496C55.2359 25.992 55.0799 25.356 55.0799 24.588C55.0799 23.604 55.2959 22.608 55.7279 21.6C56.1599 20.592 56.7239 19.644 57.4199 18.756C58.1399 17.844 58.9319 17.064 59.7959 16.416C60.2999 16.056 60.9119 15.768 61.6319 15.552C62.3759 15.312 63.1199 15.192 63.8639 15.192C64.7039 15.192 65.4359 15.324 66.0599 15.588C66.7079 15.828 67.1519 16.176 67.3919 16.632C66.8879 17.28 66.3719 18.084 65.8439 19.044C65.3159 19.98 64.8599 20.832 64.4759 21.6C64.2119 22.128 63.9239 22.788 63.6119 23.58C63.2999 24.348 63.1439 25.008 63.1439 25.56C63.1439 25.8 63.2039 26.04 63.3239 26.28C63.4439 26.52 63.6719 26.64 64.0079 26.64C64.3919 26.64 64.7639 26.496 65.1239 26.208C65.4839 25.92 65.7839 25.632 66.0239 25.344C66.5759 24.744 67.0799 24.084 67.5359 23.364C67.9919 22.644 68.4479 21.876 68.9039 21.06C68.9759 20.964 69.0479 20.916 69.1199 20.916C69.2159 20.916 69.2639 20.988 69.2639 21.132C69.2639 21.252 69.2399 21.348 69.1919 21.42C68.7839 22.212 68.3279 23.004 67.8239 23.796C67.3199 24.588 66.7199 25.332 66.0239 26.028C65.6879 26.364 65.2919 26.652 64.8359 26.892C64.3799 27.132 63.9359 27.252 63.5039 27.252ZM57.7439 26.136C58.1999 26.136 58.6919 25.896 59.2199 25.416C59.7719 24.912 60.2999 24.312 60.8039 23.616C61.3319 22.896 61.7999 22.212 62.2079 21.564C62.6399 20.892 62.9759 20.376 63.2159 20.016C63.7199 19.224 64.1879 18.564 64.6199 18.036C65.0519 17.508 65.7239 17.1 66.6359 16.812C66.6839 16.812 66.7199 16.812 66.7439 16.812C66.7919 16.788 66.8399 16.776 66.8879 16.776C66.6719 16.44 66.3119 16.188 65.8079 16.02C65.3039 15.852 64.8119 15.768 64.3319 15.768C63.5879 15.768 62.8679 15.972 62.1719 16.38C61.4759 16.788 60.8399 17.304 60.2639 17.928C59.7119 18.576 59.1719 19.284 58.6439 20.052C58.1159 20.82 57.6839 21.6 57.3479 22.392C57.0359 23.184 56.8799 23.94 56.8799 24.66C56.8799 25.044 56.9399 25.392 57.0599 25.704C57.2039 25.992 57.4319 26.136 57.7439 26.136ZM82.1311 27.216C81.4111 27.216 80.8591 27 80.4751 26.568C80.0911 26.112 79.8991 25.548 79.8991 24.876C79.8991 24.132 80.0911 23.388 80.4751 22.644C80.8591 21.876 81.2911 21.132 81.7711 20.412C82.2751 19.692 82.7191 19.008 83.1031 18.36C83.4871 17.712 83.6791 17.136 83.6791 16.632C83.6791 16.44 83.6311 16.272 83.5351 16.128C83.4391 15.96 83.2591 15.876 82.9951 15.876C82.2271 15.876 81.4231 16.236 80.5831 16.956C79.7671 17.652 78.9751 18.552 78.2071 19.656C77.4391 20.76 76.7431 21.912 76.1191 23.112C75.5191 24.312 75.0511 25.416 74.7151 26.424C74.3311 26.328 74.0671 26.184 73.9231 25.992C73.8031 25.776 73.7431 25.548 73.7431 25.308C73.7431 24.924 73.7911 24.552 73.8871 24.192C74.0071 23.832 74.1871 23.388 74.4271 22.86C74.6671 22.332 74.9791 21.66 75.3631 20.844C75.7471 20.004 76.2031 18.924 76.7311 17.604C76.8031 17.412 76.8511 17.244 76.8751 17.1C76.8991 16.956 76.9111 16.824 76.9111 16.704C76.9111 16.152 76.6831 15.876 76.2271 15.876C75.6511 15.876 75.0631 16.116 74.4631 16.596C73.8631 17.052 73.2751 17.664 72.6991 18.432C72.1471 19.2 71.6191 20.028 71.1151 20.916C70.6111 21.804 70.1551 22.68 69.7471 23.544C69.3391 24.384 69.0031 25.116 68.7391 25.74C68.4991 26.292 68.2111 26.652 67.8751 26.82C67.5391 26.964 67.2151 27.036 66.9031 27.036C66.8071 27.036 66.6871 27.024 66.5431 27C66.4231 27 66.3031 27 66.1831 27C66.6631 26.04 67.1671 24.996 67.6951 23.868C68.2471 22.716 68.7511 21.564 69.2071 20.412C69.6631 19.26 70.0351 18.156 70.3231 17.1C70.6111 16.044 70.7551 15.132 70.7551 14.364C70.7551 14.268 70.7431 14.196 70.7191 14.148C70.7191 14.1 70.7191 14.052 70.7191 14.004C70.7191 13.932 70.7431 13.896 70.7911 13.896C71.0311 13.896 71.2231 14.052 71.3671 14.364C71.5111 14.652 71.6071 14.988 71.6551 15.372C71.7271 15.732 71.7631 16.02 71.7631 16.236C71.7631 16.836 71.6911 17.46 71.5471 18.108C71.4031 18.732 71.2351 19.26 71.0431 19.692C71.9551 18.468 72.8911 17.424 73.8511 16.56C74.8351 15.696 75.8071 15.264 76.7671 15.264C77.4151 15.264 77.8831 15.396 78.1711 15.66C78.4591 15.924 78.6031 16.296 78.6031 16.776C78.6031 17.112 78.5431 17.448 78.4231 17.784C78.3271 18.12 78.1591 18.576 77.9191 19.152C78.8311 17.904 79.7191 16.944 80.5831 16.272C81.4711 15.6 82.3471 15.264 83.2111 15.264C83.9071 15.264 84.4231 15.42 84.7591 15.732C85.1191 16.044 85.2991 16.464 85.2991 16.992C85.2991 17.568 85.1071 18.252 84.7231 19.044C84.3631 19.812 83.9431 20.616 83.4631 21.456C82.9831 22.272 82.5511 23.052 82.1671 23.796C81.8071 24.516 81.6271 25.116 81.6271 25.596C81.6271 25.86 81.6871 26.1 81.8071 26.316C81.9271 26.532 82.1431 26.64 82.4551 26.64C82.8631 26.64 83.2471 26.508 83.6071 26.244C83.9911 25.956 84.3151 25.656 84.5791 25.344C85.1311 24.744 85.6351 24.084 86.0911 23.364C86.5711 22.62 87.0391 21.84 87.4951 21.024C87.5671 20.928 87.6151 20.88 87.6391 20.88C87.7351 20.88 87.7831 20.988 87.7831 21.204C87.7831 21.348 87.7591 21.456 87.7111 21.528C87.2791 22.32 86.8231 23.1 86.3431 23.868C85.8631 24.612 85.2751 25.332 84.5791 26.028C84.2671 26.34 83.9071 26.616 83.4991 26.856C83.0911 27.096 82.6351 27.216 82.1311 27.216Z" fill="black"/>
<path d="M4.024 30.276C3.784 30.276 3.4 30.24 2.872 30.168C2.368 30.096 1.9 29.94 1.468 29.7C1.036 29.46 0.82 29.088 0.82 28.584C0.82 28.272 0.892 28.032 1.036 27.864C1.132 27.744 1.228 27.684 1.324 27.684C1.42 27.684 1.444 27.744 1.396 27.864C1.324 28.224 1.456 28.56 1.792 28.872C2.128 29.208 2.464 29.424 2.8 29.52C3.28 29.64 3.7 29.7 4.06 29.7C5.116 29.7 6.064 29.4 6.904 28.8C7.768 28.2 8.536 27.504 9.208 26.712C8.296 26.16 7.492 25.5 6.796 24.732C6.124 23.94 5.788 23.064 5.788 22.104C5.788 21.72 5.836 21.372 5.932 21.06C6.172 20.244 6.688 19.596 7.48 19.116C7.72 18.972 7.972 18.876 8.236 18.828C8.524 18.756 8.812 18.72 9.1 18.72C10.036 18.72 10.696 18.936 11.08 19.368V19.404C11.08 19.452 11.032 19.512 10.936 19.584C10.864 19.656 10.804 19.668 10.756 19.62C10.588 19.38 10.288 19.26 9.856 19.26C9.328 19.26 8.812 19.44 8.308 19.8C7.828 20.16 7.516 20.604 7.372 21.132C7.228 21.588 7.156 22.044 7.156 22.5C7.156 23.316 7.384 24.036 7.84 24.66C8.32 25.26 8.896 25.788 9.568 26.244C9.76 26.004 9.928 25.764 10.072 25.524C10.24 25.284 10.408 25.044 10.576 24.804C11.296 23.7 12.004 22.44 12.7 21.024C13.396 19.608 14.116 18.156 14.86 16.668C15.604 15.156 16.384 13.692 17.2 12.276C18.04 10.86 18.952 9.6 19.936 8.496C20.92 7.368 22 6.504 23.176 5.904C23.944 5.496 24.676 5.292 25.372 5.292C25.756 5.292 26.104 5.34 26.416 5.436C26.512 5.46 26.536 5.52 26.488 5.616C26.464 5.712 26.404 5.748 26.308 5.724C26.212 5.676 26.104 5.652 25.984 5.652C25.888 5.652 25.78 5.652 25.66 5.652C24.412 5.652 23.104 6.456 21.736 8.064C20.68 9.312 19.768 10.644 19 12.06C18.232 13.452 17.524 14.892 16.876 16.38C16.228 17.844 15.556 19.296 14.86 20.736C14.188 22.176 13.384 23.556 12.448 24.876C12.208 25.236 11.944 25.584 11.656 25.92C11.392 26.256 11.116 26.58 10.828 26.892C11.164 27.036 11.512 27.156 11.872 27.252C12.256 27.348 12.604 27.432 12.916 27.504C13.996 27.72 15.1 27.828 16.228 27.828C17.788 27.828 19.3 27.648 20.764 27.288C22.252 26.952 23.56 26.484 24.688 25.884C26.224 25.068 27.592 23.94 28.792 22.5C29.992 21.06 30.94 19.464 31.636 17.712C32.356 15.96 32.716 14.22 32.716 12.492C32.716 10.764 32.308 9.144 31.492 7.632C30.676 6.096 29.32 4.848 27.424 3.888C26.248 3.288 24.94 2.856 23.5 2.592C22.084 2.304 20.656 2.16 19.216 2.16C17.176 2.16 15.196 2.496 13.276 3.168C11.38 3.816 9.832 4.704 8.632 5.832C8.008 6.432 7.444 7.236 6.94 8.244C6.46 9.252 6.22 10.248 6.22 11.232C6.22 11.448 6.232 11.664 6.256 11.88C6.28 12.096 6.328 12.312 6.4 12.528C6.616 13.2 7.024 13.716 7.624 14.076C8.248 14.412 8.956 14.58 9.748 14.58C10.348 14.58 10.972 14.472 11.62 14.256C11.644 14.256 11.656 14.256 11.656 14.256C11.68 14.232 11.704 14.22 11.728 14.22C11.776 14.22 11.8 14.244 11.8 14.292C11.8 14.412 11.728 14.496 11.584 14.544C11.248 14.64 10.888 14.724 10.504 14.796C10.144 14.868 9.784 14.904 9.424 14.904C8.656 14.904 7.912 14.772 7.192 14.508C6.472 14.22 5.884 13.776 5.428 13.176C4.996 12.576 4.78 11.808 4.78 10.872C4.78 10.128 4.888 9.432 5.104 8.784C5.32 8.136 5.62 7.524 6.004 6.948C6.796 5.772 7.912 4.8 9.352 4.032C10.816 3.24 12.424 2.652 14.176 2.268C15.952 1.86 17.704 1.656 19.432 1.656C20.896 1.656 22.36 1.8 23.824 2.088C25.288 2.352 26.68 2.76 28 3.312C30.4 4.344 32.128 5.736 33.184 7.488C34.264 9.216 34.804 11.064 34.804 13.032C34.804 14.856 34.396 16.68 33.58 18.504C32.788 20.304 31.672 21.948 30.232 23.436C28.816 24.9 27.16 26.064 25.264 26.928C24.088 27.456 22.804 27.852 21.412 28.116C20.044 28.38 18.652 28.512 17.236 28.512C16.42 28.512 15.616 28.464 14.824 28.368C14.032 28.296 13.252 28.176 12.484 28.008C12.172 27.936 11.836 27.84 11.476 27.72C11.116 27.624 10.756 27.492 10.396 27.324C9.964 27.708 9.508 28.08 9.028 28.44C8.572 28.824 8.08 29.148 7.552 29.412C7 29.676 6.424 29.88 5.824 30.024C5.248 30.192 4.648 30.276 4.024 30.276ZM33.5699 26.784C33.4259 26.952 33.2819 27.036 33.1379 27.036C33.0419 27.036 32.9819 27 32.9579 26.928C32.9339 26.832 32.9579 26.736 33.0299 26.64C33.4379 26.184 33.9299 25.56 34.5059 24.768C35.0819 23.976 35.6579 23.1 36.2339 22.14C36.8099 21.18 37.3139 20.196 37.7459 19.188C38.1779 18.156 38.4419 17.172 38.5379 16.236C37.9859 15.924 37.6139 15.384 37.4219 14.616C37.3979 14.496 37.3739 14.388 37.3499 14.292C37.3499 14.172 37.3499 14.064 37.3499 13.968C37.3499 13.536 37.4339 13.176 37.6019 12.888C37.7939 12.576 38.0099 12.42 38.2499 12.42C38.5859 12.42 38.8619 12.744 39.0779 13.392C39.1259 13.56 39.1619 13.752 39.1859 13.968C39.2099 14.16 39.2219 14.352 39.2219 14.544C39.2219 14.76 39.2099 14.964 39.1859 15.156C39.1859 15.324 39.1739 15.468 39.1499 15.588C39.3179 15.636 39.5339 15.672 39.7979 15.696C40.0859 15.72 40.3979 15.732 40.7339 15.732C41.2379 15.732 41.7659 15.72 42.3179 15.696C42.8699 15.648 43.3379 15.624 43.7219 15.624C44.1779 15.624 44.4899 15.72 44.6579 15.912C44.8259 16.104 44.9099 16.344 44.9099 16.632C44.9099 16.992 44.8139 17.388 44.6219 17.82C44.4539 18.228 44.2859 18.576 44.1179 18.864C43.8059 19.44 43.5059 19.956 43.2179 20.412C42.9539 20.844 42.6539 21.312 42.3179 21.816C41.8139 22.584 41.4419 23.292 41.2019 23.94C40.9859 24.564 40.8779 25.092 40.8779 25.524C40.8779 26.268 41.1539 26.64 41.7059 26.64C42.1619 26.64 42.7499 26.316 43.4699 25.668C43.9259 25.26 44.3459 24.78 44.7299 24.228C45.1379 23.652 45.4979 23.076 45.8099 22.5C46.1459 21.9 46.4219 21.408 46.6379 21.024C46.6859 20.952 46.7339 20.916 46.7819 20.916C46.8779 20.916 46.9259 21.012 46.9259 21.204C46.9259 21.348 46.8899 21.48 46.8179 21.6C46.4099 22.344 45.9419 23.16 45.4139 24.048C44.8859 24.936 44.2379 25.704 43.4699 26.352C43.0619 26.688 42.6539 26.928 42.2459 27.072C41.8619 27.24 41.5019 27.324 41.1659 27.324C40.5659 27.324 40.0619 27.12 39.6539 26.712C39.2699 26.28 39.0779 25.716 39.0779 25.02C39.0779 24.612 39.1739 24.12 39.3659 23.544C39.6779 22.68 40.1459 21.852 40.7699 21.06C41.3939 20.268 41.9939 19.464 42.5699 18.648C42.9299 18.168 43.1099 17.7 43.1099 17.244C43.1099 17.004 43.0379 16.8 42.8939 16.632C42.7739 16.464 42.5459 16.368 42.2099 16.344C42.0179 16.296 41.8019 16.272 41.5619 16.272C41.3219 16.272 41.0819 16.272 40.8419 16.272H39.8339C39.6899 16.272 39.5579 16.272 39.4379 16.272C39.3179 16.272 39.2099 16.26 39.1139 16.236C38.9939 17.148 38.7059 18.132 38.2499 19.188C37.8179 20.22 37.3019 21.24 36.7019 22.248C36.1259 23.256 35.5499 24.156 34.9739 24.948C34.4219 25.74 33.9539 26.352 33.5699 26.784ZM49.87 27.288C48.478 27.288 47.494 26.928 46.918 26.208C46.63 25.896 46.426 25.524 46.306 25.092C46.186 24.66 46.126 24.216 46.126 23.76C46.126 23.184 46.198 22.608 46.342 22.032C46.486 21.432 46.666 20.88 46.882 20.376C47.218 19.584 47.662 18.792 48.214 18C48.766 17.184 49.426 16.5 50.194 15.948C50.986 15.396 51.85 15.12 52.786 15.12C53.41 15.12 53.902 15.276 54.262 15.588C54.622 15.9 54.802 16.38 54.802 17.028C54.802 17.772 54.574 18.528 54.118 19.296C53.662 20.04 53.086 20.664 52.39 21.168C51.694 21.672 50.974 21.924 50.23 21.924C49.558 21.924 48.97 21.684 48.466 21.204C48.322 21.588 48.202 22.02 48.106 22.5C48.01 22.956 47.962 23.424 47.962 23.904C47.962 24.648 48.106 25.296 48.394 25.848C48.706 26.4 49.258 26.676 50.05 26.676C50.626 26.676 51.178 26.532 51.706 26.244C52.258 25.932 52.75 25.56 53.182 25.128C53.662 24.624 54.118 24.084 54.55 23.508C54.982 22.932 55.402 22.26 55.81 21.492C55.858 21.42 55.894 21.384 55.918 21.384C56.014 21.384 56.062 21.492 56.062 21.708C56.062 21.852 56.014 22.008 55.918 22.176C55.558 22.824 55.138 23.484 54.658 24.156C54.178 24.804 53.686 25.368 53.182 25.848C52.726 26.28 52.234 26.628 51.706 26.892C51.178 27.156 50.566 27.288 49.87 27.288ZM48.646 20.664C48.814 20.904 49.006 21.084 49.222 21.204C49.462 21.3 49.702 21.348 49.942 21.348C50.518 21.348 51.118 21.132 51.742 20.7C52.366 20.244 52.87 19.716 53.254 19.116C53.422 18.852 53.566 18.504 53.686 18.072C53.83 17.64 53.902 17.232 53.902 16.848C53.902 16.512 53.83 16.224 53.686 15.984C53.566 15.72 53.314 15.588 52.93 15.588C52.498 15.588 51.982 15.852 51.382 16.38C50.806 16.908 50.254 17.592 49.726 18.432C49.558 18.72 49.366 19.056 49.15 19.44C48.958 19.824 48.79 20.232 48.646 20.664ZM63.5039 27.252C62.7359 27.252 62.2079 27.012 61.9199 26.532C61.6319 26.028 61.4879 25.476 61.4879 24.876C61.4879 24.756 61.4999 24.552 61.5239 24.264C61.5719 23.952 61.6199 23.664 61.6679 23.4C61.3319 23.856 60.9239 24.36 60.4439 24.912C59.9879 25.464 59.5199 25.932 59.0399 26.316C58.2719 26.94 57.5759 27.252 56.9519 27.252C56.3519 27.252 55.8839 27 55.5479 26.496C55.2359 25.992 55.0799 25.356 55.0799 24.588C55.0799 23.604 55.2959 22.608 55.7279 21.6C56.1599 20.592 56.7239 19.644 57.4199 18.756C58.1399 17.844 58.9319 17.064 59.7959 16.416C60.2999 16.056 60.9119 15.768 61.6319 15.552C62.3759 15.312 63.1199 15.192 63.8639 15.192C64.7039 15.192 65.4359 15.324 66.0599 15.588C66.7079 15.828 67.1519 16.176 67.3919 16.632C66.8879 17.28 66.3719 18.084 65.8439 19.044C65.3159 19.98 64.8599 20.832 64.4759 21.6C64.2119 22.128 63.9239 22.788 63.6119 23.58C63.2999 24.348 63.1439 25.008 63.1439 25.56C63.1439 25.8 63.2039 26.04 63.3239 26.28C63.4439 26.52 63.6719 26.64 64.0079 26.64C64.3919 26.64 64.7639 26.496 65.1239 26.208C65.4839 25.92 65.7839 25.632 66.0239 25.344C66.5759 24.744 67.0799 24.084 67.5359 23.364C67.9919 22.644 68.4479 21.876 68.9039 21.06C68.9759 20.964 69.0479 20.916 69.1199 20.916C69.2159 20.916 69.2639 20.988 69.2639 21.132C69.2639 21.252 69.2399 21.348 69.1919 21.42C68.7839 22.212 68.3279 23.004 67.8239 23.796C67.3199 24.588 66.7199 25.332 66.0239 26.028C65.6879 26.364 65.2919 26.652 64.8359 26.892C64.3799 27.132 63.9359 27.252 63.5039 27.252ZM57.7439 26.136C58.1999 26.136 58.6919 25.896 59.2199 25.416C59.7719 24.912 60.2999 24.312 60.8039 23.616C61.3319 22.896 61.7999 22.212 62.2079 21.564C62.6399 20.892 62.9759 20.376 63.2159 20.016C63.7199 19.224 64.1879 18.564 64.6199 18.036C65.0519 17.508 65.7239 17.1 66.6359 16.812C66.6839 16.812 66.7199 16.812 66.7439 16.812C66.7919 16.788 66.8399 16.776 66.8879 16.776C66.6719 16.44 66.3119 16.188 65.8079 16.02C65.3039 15.852 64.8119 15.768 64.3319 15.768C63.5879 15.768 62.8679 15.972 62.1719 16.38C61.4759 16.788 60.8399 17.304 60.2639 17.928C59.7119 18.576 59.1719 19.284 58.6439 20.052C58.1159 20.82 57.6839 21.6 57.3479 22.392C57.0359 23.184 56.8799 23.94 56.8799 24.66C56.8799 25.044 56.9399 25.392 57.0599 25.704C57.2039 25.992 57.4319 26.136 57.7439 26.136ZM82.1311 27.216C81.4111 27.216 80.8591 27 80.4751 26.568C80.0911 26.112 79.8991 25.548 79.8991 24.876C79.8991 24.132 80.0911 23.388 80.4751 22.644C80.8591 21.876 81.2911 21.132 81.7711 20.412C82.2751 19.692 82.7191 19.008 83.1031 18.36C83.4871 17.712 83.6791 17.136 83.6791 16.632C83.6791 16.44 83.6311 16.272 83.5351 16.128C83.4391 15.96 83.2591 15.876 82.9951 15.876C82.2271 15.876 81.4231 16.236 80.5831 16.956C79.7671 17.652 78.9751 18.552 78.2071 19.656C77.4391 20.76 76.7431 21.912 76.1191 23.112C75.5191 24.312 75.0511 25.416 74.7151 26.424C74.3311 26.328 74.0671 26.184 73.9231 25.992C73.8031 25.776 73.7431 25.548 73.7431 25.308C73.7431 24.924 73.7911 24.552 73.8871 24.192C74.0071 23.832 74.1871 23.388 74.4271 22.86C74.6671 22.332 74.9791 21.66 75.3631 20.844C75.7471 20.004 76.2031 18.924 76.7311 17.604C76.8031 17.412 76.8511 17.244 76.8751 17.1C76.8991 16.956 76.9111 16.824 76.9111 16.704C76.9111 16.152 76.6831 15.876 76.2271 15.876C75.6511 15.876 75.0631 16.116 74.4631 16.596C73.8631 17.052 73.2751 17.664 72.6991 18.432C72.1471 19.2 71.6191 20.028 71.1151 20.916C70.6111 21.804 70.1551 22.68 69.7471 23.544C69.3391 24.384 69.0031 25.116 68.7391 25.74C68.4991 26.292 68.2111 26.652 67.8751 26.82C67.5391 26.964 67.2151 27.036 66.9031 27.036C66.8071 27.036 66.6871 27.024 66.5431 27C66.4231 27 66.3031 27 66.1831 27C66.6631 26.04 67.1671 24.996 67.6951 23.868C68.2471 22.716 68.7511 21.564 69.2071 20.412C69.6631 19.26 70.0351 18.156 70.3231 17.1C70.6111 16.044 70.7551 15.132 70.7551 14.364C70.7551 14.268 70.7431 14.196 70.7191 14.148C70.7191 14.1 70.7191 14.052 70.7191 14.004C70.7191 13.932 70.7431 13.896 70.7911 13.896C71.0311 13.896 71.2231 14.052 71.3671 14.364C71.5111 14.652 71.6071 14.988 71.6551 15.372C71.7271 15.732 71.7631 16.02 71.7631 16.236C71.7631 16.836 71.6911 17.46 71.5471 18.108C71.4031 18.732 71.2351 19.26 71.0431 19.692C71.9551 18.468 72.8911 17.424 73.8511 16.56C74.8351 15.696 75.8071 15.264 76.7671 15.264C77.4151 15.264 77.8831 15.396 78.1711 15.66C78.4591 15.924 78.6031 16.296 78.6031 16.776C78.6031 17.112 78.5431 17.448 78.4231 17.784C78.3271 18.12 78.1591 18.576 77.9191 19.152C78.8311 17.904 79.7191 16.944 80.5831 16.272C81.4711 15.6 82.3471 15.264 83.2111 15.264C83.9071 15.264 84.4231 15.42 84.7591 15.732C85.1191 16.044 85.2991 16.464 85.2991 16.992C85.2991 17.568 85.1071 18.252 84.7231 19.044C84.3631 19.812 83.9431 20.616 83.4631 21.456C82.9831 22.272 82.5511 23.052 82.1671 23.796C81.8071 24.516 81.6271 25.116 81.6271 25.596C81.6271 25.86 81.6871 26.1 81.8071 26.316C81.9271 26.532 82.1431 26.64 82.4551 26.64C82.8631 26.64 83.2471 26.508 83.6071 26.244C83.9911 25.956 84.3151 25.656 84.5791 25.344C85.1311 24.744 85.6351 24.084 86.0911 23.364C86.5711 22.62 87.0391 21.84 87.4951 21.024C87.5671 20.928 87.6151 20.88 87.6391 20.88C87.7351 20.88 87.7831 20.988 87.7831 21.204C87.7831 21.348 87.7591 21.456 87.7111 21.528C87.2791 22.32 86.8231 23.1 86.3431 23.868C85.8631 24.612 85.2751 25.332 84.5791 26.028C84.2671 26.34 83.9071 26.616 83.4991 26.856C83.0911 27.096 82.6351 27.216 82.1311 27.216Z" fill="#BC6C25"/>
<path d="M92.9164 30.168C92.6284 30.024 92.4004 29.82 92.2324 29.556C92.0884 29.292 92.0164 29.028 92.0164 28.764C92.0164 28.5 92.0884 28.284 92.2324 28.116C92.3044 28.02 92.3884 27.96 92.4844 27.936C92.6044 27.936 92.6404 27.996 92.5924 28.116C92.5204 28.476 92.6884 28.812 93.0964 29.124C93.5044 29.436 93.8764 29.64 94.2124 29.736C94.5724 29.808 94.9324 29.844 95.2924 29.844C96.0364 29.844 96.6964 29.736 97.2724 29.52C98.1364 29.232 98.9884 28.632 99.8284 27.72C100.692 26.832 101.496 25.836 102.24 24.732C102.864 23.772 103.476 22.704 104.076 21.528C104.676 20.352 105.276 19.14 105.876 17.892C105.396 17.844 104.808 17.796 104.112 17.748C103.416 17.7 102.696 17.676 101.952 17.676C100.992 17.676 100.068 17.76 99.1804 17.928C98.2924 18.072 97.6564 18.384 97.2724 18.864C97.0804 19.128 96.9844 19.416 96.9844 19.728C96.9844 19.8 96.9844 19.872 96.9844 19.944C97.0084 20.016 97.0324 20.088 97.0564 20.16C97.0564 20.184 97.0564 20.208 97.0564 20.232C97.0804 20.232 97.0924 20.244 97.0924 20.268C97.0924 20.316 97.0564 20.34 96.9844 20.34C96.8644 20.34 96.7924 20.28 96.7684 20.16C96.7444 20.088 96.7204 19.992 96.6964 19.872C96.6724 19.752 96.6604 19.632 96.6604 19.512C96.6604 19.176 96.7324 18.852 96.8764 18.54C97.2604 17.772 97.8604 17.244 98.6764 16.956C99.4924 16.668 100.38 16.524 101.34 16.524C102.228 16.524 103.116 16.596 104.004 16.74C104.892 16.884 105.636 17.016 106.236 17.136C107.028 15.6 107.844 14.088 108.684 12.6C109.548 11.112 110.484 9.78 111.492 8.604C112.5 7.428 113.616 6.528 114.84 5.904C113.664 5.76 112.452 5.568 111.204 5.328C109.98 5.064 108.948 4.86 108.108 4.716C107.58 4.62 106.98 4.56 106.308 4.536C105.636 4.488 104.928 4.464 104.184 4.464C102.864 4.464 101.544 4.548 100.224 4.716C98.9044 4.86 97.8484 5.112 97.0564 5.472C95.6644 6.096 94.4644 6.96 93.4564 8.064C92.4484 9.144 91.9444 10.5 91.9444 12.132C91.9444 12.804 92.0524 13.38 92.2684 13.86C92.5084 14.316 92.8084 14.664 93.1684 14.904C93.5764 15.144 93.9964 15.264 94.4284 15.264C94.9564 15.264 95.4964 15.108 96.0484 14.796C96.6004 14.46 97.0804 13.98 97.4884 13.356C97.6804 13.044 97.8604 12.588 98.0284 11.988C98.2204 11.388 98.3164 10.776 98.3164 10.152C98.3164 9.816 98.2804 9.492 98.2084 9.18C98.1604 8.868 98.0524 8.592 97.8844 8.352C97.8364 8.256 97.8124 8.208 97.8124 8.208C97.8124 8.136 97.8484 8.1 97.9204 8.1C98.0164 8.1 98.1004 8.16 98.1724 8.28C98.2924 8.448 98.4124 8.712 98.5324 9.072C98.6764 9.408 98.7724 9.72 98.8204 10.008C98.8444 10.152 98.8564 10.296 98.8564 10.44C98.8804 10.584 98.8924 10.728 98.8924 10.872C98.8924 11.352 98.8324 11.844 98.7124 12.348C98.5924 12.828 98.4004 13.272 98.1364 13.68C97.7524 14.328 97.2364 14.82 96.5884 15.156C95.9404 15.468 95.2684 15.624 94.5724 15.624C94.0204 15.624 93.4924 15.516 92.9884 15.3C92.2444 14.94 91.6924 14.424 91.3324 13.752C90.9964 13.08 90.8284 12.348 90.8284 11.556C90.8284 11.028 90.8884 10.5 91.0084 9.972C91.1524 9.42 91.3444 8.892 91.5844 8.388C91.9924 7.5 92.5564 6.72 93.2764 6.048C93.9964 5.376 94.7164 4.848 95.4364 4.464C96.6364 3.816 97.8364 3.36 99.0364 3.096C100.26 2.832 101.496 2.7 102.744 2.7C103.776 2.7 104.82 2.772 105.876 2.916C106.932 3.06 108 3.264 109.08 3.528C110.304 3.816 111.564 4.14 112.86 4.5C113.34 4.644 113.916 4.8 114.588 4.968C115.26 5.136 115.932 5.256 116.604 5.328C116.7 5.328 116.784 5.328 116.856 5.328C116.928 5.304 117.012 5.292 117.108 5.292C117.348 5.292 117.612 5.328 117.9 5.4C118.356 5.376 118.8 5.292 119.232 5.148C119.664 5.004 120.012 4.74 120.276 4.356C120.372 4.212 120.42 4.08 120.42 3.96C120.42 3.84 120.408 3.732 120.384 3.636C120.36 3.516 120.384 3.42 120.456 3.348C120.504 3.3 120.564 3.276 120.636 3.276C120.756 3.276 120.852 3.348 120.924 3.492C120.948 3.564 120.96 3.684 120.96 3.852C120.96 3.924 120.96 4.008 120.96 4.104C120.96 4.176 120.936 4.248 120.888 4.32C120.72 4.8 120.396 5.184 119.916 5.472C119.436 5.736 118.956 5.904 118.476 5.976C118.284 6 118.068 6.024 117.828 6.048C117.612 6.048 117.384 6.048 117.144 6.048C116.952 6.048 116.748 6.048 116.532 6.048C116.316 6.048 116.1 6.036 115.884 6.012C115.092 6.372 114.264 7.056 113.4 8.064C112.224 9.456 111.216 10.968 110.376 12.6C109.56 14.208 108.792 15.84 108.072 17.496C108.408 17.544 108.744 17.592 109.08 17.64C109.416 17.664 109.74 17.676 110.052 17.676C110.7 17.676 111.276 17.592 111.78 17.424C111.828 17.256 111.912 17.028 112.032 16.74C112.176 16.428 112.308 16.2 112.428 16.056C112.812 15.528 113.196 15.264 113.58 15.264C113.892 15.264 114.048 15.42 114.048 15.732C114.048 15.924 113.94 16.188 113.724 16.524C113.556 16.74 113.352 16.944 113.112 17.136C112.896 17.328 112.668 17.472 112.428 17.568C112.26 17.904 112.14 18.264 112.068 18.648C111.996 19.032 111.96 19.392 111.96 19.728C111.96 20.256 112.044 20.676 112.212 20.988C112.236 21.012 112.248 21.06 112.248 21.132C112.248 21.204 112.2 21.252 112.104 21.276C112.032 21.3 111.96 21.276 111.888 21.204C111.576 20.82 111.42 20.256 111.42 19.512C111.42 18.912 111.528 18.324 111.744 17.748C111.216 17.964 110.472 18.072 109.512 18.072C109.248 18.072 108.972 18.072 108.684 18.072C108.42 18.048 108.132 18.024 107.82 18C107.292 19.176 106.728 20.352 106.128 21.528C105.552 22.704 104.88 23.82 104.112 24.876C103.272 26.052 102.324 27.108 101.268 28.044C100.212 28.98 99.0124 29.688 97.6684 30.168C96.9244 30.432 96.0364 30.564 95.0044 30.564C94.5964 30.564 94.2124 30.528 93.8524 30.456C93.4924 30.408 93.1804 30.312 92.9164 30.168ZM117.034 27.216C116.29 27.216 115.75 27 115.414 26.568C115.102 26.136 114.946 25.608 114.946 24.984C114.946 24.192 115.102 23.328 115.414 22.392C115.75 21.456 116.134 20.568 116.566 19.728C116.998 18.864 117.346 18.192 117.61 17.712C118.138 16.824 118.666 16.272 119.194 16.056C119.746 15.84 120.418 15.732 121.21 15.732C120.97 15.804 120.658 16.092 120.274 16.596C119.89 17.076 119.482 17.676 119.05 18.396C118.642 19.116 118.246 19.896 117.862 20.736C117.502 21.552 117.202 22.356 116.962 23.148C116.746 23.916 116.638 24.576 116.638 25.128C116.638 25.536 116.71 25.872 116.854 26.136C117.022 26.4 117.274 26.532 117.61 26.532C117.898 26.532 118.234 26.424 118.618 26.208C119.002 25.968 119.35 25.68 119.662 25.344C120.718 24.168 121.57 22.884 122.218 21.492C122.89 20.076 123.634 18.672 124.45 17.28C124.978 16.392 125.506 15.84 126.034 15.624C126.586 15.408 127.258 15.3 128.05 15.3C127.81 15.372 127.486 15.672 127.078 16.2C126.67 16.704 126.238 17.34 125.782 18.108C125.35 18.876 124.942 19.704 124.558 20.592C124.174 21.456 123.85 22.296 123.586 23.112C123.346 23.928 123.226 24.624 123.226 25.2C123.226 25.584 123.298 25.908 123.442 26.172C123.61 26.412 123.85 26.532 124.162 26.532C124.45 26.532 124.786 26.412 125.17 26.172C125.554 25.932 125.902 25.656 126.214 25.344C126.766 24.744 127.27 24.084 127.726 23.364C128.182 22.644 128.638 21.876 129.094 21.06C129.166 20.964 129.226 20.916 129.274 20.916C129.37 20.916 129.418 20.988 129.418 21.132C129.418 21.252 129.394 21.348 129.346 21.42C128.914 22.212 128.458 23.004 127.978 23.796C127.498 24.588 126.91 25.332 126.214 26.028C125.83 26.412 125.374 26.736 124.846 27C124.342 27.24 123.838 27.312 123.334 27.216C122.662 27.096 122.182 26.832 121.894 26.424C121.606 25.992 121.462 25.476 121.462 24.876C121.462 24.396 121.534 23.892 121.678 23.364C121.39 23.82 121.078 24.276 120.742 24.732C120.43 25.188 120.07 25.62 119.662 26.028C119.326 26.364 118.918 26.652 118.438 26.892C117.982 27.108 117.514 27.216 117.034 27.216ZM135.875 26.352C135.467 26.688 135.059 26.928 134.651 27.072C134.267 27.24 133.907 27.324 133.571 27.324C132.971 27.324 132.467 27.12 132.059 26.712C131.675 26.28 131.483 25.716 131.483 25.02C131.483 24.612 131.579 24.12 131.771 23.544C132.083 22.68 132.551 21.852 133.175 21.06C133.799 20.268 134.399 19.464 134.975 18.648C135.335 18.168 135.515 17.7 135.515 17.244C135.515 17.004 135.443 16.8 135.299 16.632C135.179 16.464 134.951 16.368 134.615 16.344C134.423 16.296 134.207 16.272 133.967 16.272C133.727 16.272 133.487 16.272 133.247 16.272H132.239C132.095 16.272 131.963 16.272 131.843 16.272C131.723 16.272 131.615 16.26 131.519 16.236C131.423 16.836 131.219 17.508 130.907 18.252C130.619 18.996 130.283 19.74 129.899 20.484C129.515 21.228 129.143 21.9 128.783 22.5C128.687 22.644 128.603 22.716 128.531 22.716C128.459 22.716 128.423 22.644 128.423 22.5C128.423 22.332 128.459 22.2 128.531 22.104C129.035 21.12 129.515 20.16 129.971 19.224C130.451 18.264 130.775 17.268 130.943 16.236C130.391 15.924 130.019 15.384 129.827 14.616C129.803 14.496 129.779 14.388 129.755 14.292C129.755 14.172 129.755 14.064 129.755 13.968C129.755 13.536 129.839 13.176 130.007 12.888C130.199 12.576 130.415 12.42 130.655 12.42C130.991 12.42 131.267 12.744 131.483 13.392C131.531 13.56 131.567 13.752 131.591 13.968C131.615 14.16 131.627 14.352 131.627 14.544C131.627 14.76 131.615 14.964 131.591 15.156C131.591 15.324 131.579 15.468 131.555 15.588C131.723 15.636 131.939 15.672 132.203 15.696C132.491 15.72 132.803 15.732 133.139 15.732C133.643 15.732 134.171 15.72 134.723 15.696C135.275 15.648 135.743 15.624 136.127 15.624C136.583 15.624 136.895 15.72 137.063 15.912C137.231 16.104 137.315 16.344 137.315 16.632C137.315 16.992 137.219 17.388 137.027 17.82C136.859 18.228 136.691 18.576 136.523 18.864C136.211 19.44 135.911 19.956 135.623 20.412C135.359 20.844 135.059 21.312 134.723 21.816C134.219 22.584 133.847 23.292 133.607 23.94C133.391 24.564 133.283 25.092 133.283 25.524C133.283 26.268 133.559 26.64 134.111 26.64C134.567 26.64 135.155 26.316 135.875 25.668C136.331 25.26 136.751 24.78 137.135 24.228C137.543 23.652 137.903 23.076 138.215 22.5C138.551 21.9 138.827 21.408 139.043 21.024C139.091 20.952 139.139 20.916 139.187 20.916C139.283 20.916 139.331 21.012 139.331 21.204C139.331 21.348 139.295 21.48 139.223 21.6C138.815 22.344 138.347 23.16 137.819 24.048C137.291 24.936 136.643 25.704 135.875 26.352ZM145.464 27.216C144.768 27.216 144.216 27 143.808 26.568C143.424 26.136 143.232 25.596 143.232 24.948C143.232 24.636 143.292 24.276 143.412 23.868C143.748 22.812 144.276 21.768 144.996 20.736C145.74 19.68 146.352 18.636 146.832 17.604C147 17.268 147.084 16.968 147.084 16.704C147.084 16.44 147 16.248 146.832 16.128C146.688 15.984 146.508 15.912 146.292 15.912C145.98 15.912 145.584 16.044 145.104 16.308C144.648 16.548 144.12 17.016 143.52 17.712C143.16 18.144 142.752 18.672 142.296 19.296C141.84 19.92 141.468 20.484 141.18 20.988C140.7 21.804 140.268 22.632 139.884 23.472C139.5 24.288 139.164 25.044 138.876 25.74C138.636 26.292 138.348 26.652 138.012 26.82C137.676 26.964 137.352 27.024 137.04 27C136.728 26.976 136.488 26.976 136.32 27C136.992 25.68 137.652 24.288 138.3 22.824C138.948 21.36 139.5 19.896 139.956 18.432C140.172 17.76 140.352 17.112 140.496 16.488C140.64 15.84 140.7 15.42 140.676 15.228V15.156C140.676 14.964 140.772 14.916 140.964 15.012C141.276 15.18 141.492 15.432 141.612 15.768C141.732 16.08 141.792 16.44 141.792 16.848C141.792 17.304 141.732 17.796 141.612 18.324C141.492 18.828 141.348 19.284 141.18 19.692C141.492 19.26 141.828 18.828 142.188 18.396C142.548 17.94 142.944 17.508 143.376 17.1C143.88 16.596 144.42 16.164 144.996 15.804C145.572 15.42 146.196 15.228 146.868 15.228C147.516 15.228 147.984 15.372 148.272 15.66C148.584 15.948 148.74 16.332 148.74 16.812C148.74 17.316 148.596 17.892 148.308 18.54C147.996 19.284 147.612 20.028 147.156 20.772C146.724 21.516 146.328 22.236 145.968 22.932C145.896 23.076 145.776 23.304 145.608 23.616C145.464 23.904 145.332 24.228 145.212 24.588C145.164 24.756 145.116 24.936 145.068 25.128C145.02 25.296 144.996 25.476 144.996 25.668C144.996 25.908 145.044 26.136 145.14 26.352C145.26 26.544 145.476 26.64 145.788 26.64C146.196 26.64 146.58 26.508 146.94 26.244C147.324 25.956 147.648 25.656 147.912 25.344C148.464 24.744 148.968 24.084 149.424 23.364C149.904 22.62 150.372 21.84 150.828 21.024C150.9 20.928 150.948 20.88 150.972 20.88C151.068 20.88 151.116 20.988 151.116 21.204C151.116 21.348 151.092 21.456 151.044 21.528C150.612 22.32 150.156 23.1 149.676 23.868C149.196 24.612 148.608 25.332 147.912 26.028C147.6 26.34 147.24 26.616 146.832 26.856C146.424 27.096 145.968 27.216 145.464 27.216ZM151.59 27.216C150.918 27.216 150.426 27 150.114 26.568C149.802 26.112 149.646 25.56 149.646 24.912C149.646 24.72 149.658 24.528 149.682 24.336C149.73 24.12 149.778 23.904 149.826 23.688C150.09 22.728 150.498 21.66 151.05 20.484C151.626 19.284 152.178 18.216 152.706 17.28C153.018 16.752 153.306 16.38 153.57 16.164C153.834 15.924 154.122 15.756 154.434 15.66C154.746 15.54 155.118 15.408 155.55 15.264C155.67 15.216 155.79 15.18 155.91 15.156C156.03 15.132 156.162 15.108 156.306 15.084C155.826 15.564 155.334 16.14 154.83 16.812C154.35 17.484 153.822 18.408 153.246 19.584C152.934 20.208 152.622 20.904 152.31 21.672C152.022 22.44 151.77 23.16 151.554 23.832C151.338 24.504 151.218 25.032 151.194 25.416C151.17 25.872 151.23 26.196 151.374 26.388C151.518 26.58 151.71 26.676 151.95 26.676C152.358 26.676 152.742 26.532 153.102 26.244C153.486 25.956 153.822 25.656 154.11 25.344C154.638 24.744 155.13 24.084 155.586 23.364C156.066 22.644 156.534 21.876 156.99 21.06C157.062 20.964 157.122 20.916 157.17 20.916C157.266 20.916 157.314 20.988 157.314 21.132C157.314 21.252 157.29 21.348 157.242 21.42C156.81 22.212 156.354 23.004 155.874 23.796C155.394 24.588 154.806 25.332 154.11 26.028C153.798 26.34 153.426 26.616 152.994 26.856C152.586 27.096 152.118 27.216 151.59 27.216ZM155.982 13.068C155.718 13.068 155.49 12.972 155.298 12.78C155.13 12.588 155.046 12.36 155.046 12.096C155.046 11.76 155.178 11.46 155.442 11.196C155.73 10.932 156.042 10.776 156.378 10.728C156.642 10.728 156.858 10.824 157.026 11.016C157.218 11.184 157.314 11.412 157.314 11.7C157.314 12.012 157.182 12.324 156.918 12.636C156.654 12.924 156.342 13.068 155.982 13.068ZM157.741 27.288C157.237 27.288 156.769 27.192 156.337 27C155.929 26.784 155.593 26.424 155.329 25.92C155.137 25.488 155.041 25.02 155.041 24.516C155.041 23.988 155.137 23.496 155.329 23.04C155.521 22.632 155.737 22.272 155.977 21.96C156.217 21.648 156.481 21.468 156.769 21.42C156.985 20.94 157.309 20.304 157.741 19.512C158.197 18.72 158.701 17.928 159.253 17.136C159.829 16.344 160.369 15.708 160.873 15.228C160.993 15.108 161.197 14.916 161.485 14.652C161.797 14.364 162.145 14.088 162.529 13.824C162.937 13.56 163.309 13.404 163.645 13.356C163.717 13.332 163.813 13.32 163.933 13.32C164.221 13.32 164.437 13.392 164.581 13.536C164.725 13.68 164.797 13.848 164.797 14.04C164.797 14.232 164.725 14.424 164.581 14.616C164.437 14.808 164.209 14.964 163.897 15.084C163.777 15.108 163.597 15.144 163.357 15.192C163.141 15.24 162.817 15.264 162.385 15.264C162.217 15.504 162.133 15.84 162.133 16.272C162.133 16.752 162.205 17.292 162.349 17.892C162.517 18.492 162.673 19.08 162.817 19.656C162.985 20.208 163.069 20.676 163.069 21.06C163.117 21.948 162.973 22.848 162.637 23.76C162.325 24.648 161.821 25.404 161.125 26.028L160.621 26.388C160.693 26.412 160.765 26.436 160.837 26.46C160.909 26.46 160.981 26.46 161.053 26.46C161.461 26.46 161.917 26.34 162.421 26.1C162.925 25.836 163.369 25.512 163.753 25.128C164.329 24.576 164.821 23.988 165.229 23.364C165.661 22.74 166.057 22.092 166.417 21.42C166.441 21.324 166.501 21.276 166.597 21.276C166.717 21.276 166.777 21.372 166.777 21.564C166.777 21.66 166.741 21.768 166.669 21.888C166.309 22.56 165.865 23.268 165.337 24.012C164.833 24.732 164.305 25.344 163.753 25.848C163.321 26.232 162.853 26.52 162.349 26.712C161.869 26.88 161.461 26.964 161.125 26.964C160.885 26.964 160.693 26.94 160.549 26.892C160.405 26.844 160.273 26.772 160.153 26.676C159.817 26.844 159.433 26.988 159.001 27.108C158.593 27.228 158.173 27.288 157.741 27.288ZM159.109 26.352C159.589 26.016 159.961 25.584 160.225 25.056C160.513 24.528 160.729 23.964 160.873 23.364C161.065 22.644 161.173 21.9 161.197 21.132C161.245 20.364 161.269 19.668 161.269 19.044V17.784C161.269 17.28 161.329 16.764 161.449 16.236C161.593 15.708 161.737 15.384 161.881 15.264C161.521 15.408 161.125 15.732 160.693 16.236C160.261 16.716 159.829 17.292 159.397 17.964C158.965 18.612 158.569 19.248 158.209 19.872C157.873 20.496 157.609 21.012 157.417 21.42C157.873 21.396 158.185 21.528 158.353 21.816C158.521 22.08 158.569 22.272 158.497 22.392C158.305 22.344 158.173 22.32 158.101 22.32C157.741 22.32 157.405 22.452 157.093 22.716C156.781 22.956 156.517 23.316 156.301 23.796C156.085 24.252 155.977 24.696 155.977 25.128C155.977 25.704 156.145 26.124 156.481 26.388C156.817 26.652 157.213 26.784 157.669 26.784C158.197 26.784 158.677 26.64 159.109 26.352ZM173.206 27.252C172.39 27.252 171.814 27.012 171.478 26.532C171.166 26.052 171.01 25.536 171.01 24.984C171.01 24.744 171.034 24.516 171.082 24.3C171.13 24.06 171.19 23.832 171.262 23.616C171.67 22.56 172.234 21.552 172.954 20.592C173.674 19.632 174.274 18.636 174.754 17.604C174.922 17.292 175.006 17.004 175.006 16.74C175.006 16.452 174.922 16.236 174.754 16.092C174.586 15.948 174.406 15.876 174.214 15.876C173.758 15.876 173.254 16.08 172.702 16.488C172.174 16.872 171.658 17.364 171.154 17.964C170.698 18.492 170.23 19.104 169.75 19.8C169.27 20.472 168.814 21.192 168.382 21.96C167.974 22.656 167.554 23.388 167.122 24.156C166.69 24.9 166.342 25.536 166.078 26.064C165.886 26.472 165.682 26.736 165.466 26.856C165.25 26.976 165.046 27.036 164.854 27.036C164.758 27.036 164.662 27.024 164.566 27C164.47 27 164.386 27 164.314 27C164.53 26.184 164.926 25.068 165.502 23.652C166.102 22.212 166.81 20.508 167.626 18.54C168.082 17.484 168.622 16.272 169.246 14.904C169.87 13.512 170.578 12.096 171.37 10.656C172.162 9.192 173.038 7.812 173.998 6.516C174.958 5.196 175.99 4.044 177.094 3.06C178.222 2.076 179.41 1.392 180.658 1.008C180.802 0.983998 180.946 0.959998 181.09 0.935999C181.234 0.911999 181.378 0.899999 181.522 0.899999C181.882 0.899999 182.194 0.983999 182.458 1.152C182.794 1.368 182.962 1.752 182.962 2.304C182.962 2.688 182.854 3.156 182.638 3.708C182.254 4.668 181.618 5.7 180.73 6.804C179.866 7.908 178.846 9.036 177.67 10.188C176.206 11.604 174.802 12.852 173.458 13.932C172.114 15.012 171.034 15.864 170.218 16.488C169.738 17.52 169.342 18.42 169.03 19.188C168.718 19.932 168.514 20.472 168.418 20.808C168.802 20.232 169.234 19.608 169.714 18.936C170.218 18.24 170.662 17.7 171.046 17.316C171.598 16.764 172.15 16.296 172.702 15.912C173.254 15.528 173.794 15.312 174.322 15.264C175.138 15.192 175.726 15.3 176.086 15.588C176.446 15.852 176.626 16.248 176.626 16.776C176.626 17.304 176.482 17.892 176.194 18.54C175.882 19.284 175.51 20.028 175.078 20.772C174.646 21.516 174.25 22.236 173.89 22.932C173.794 23.124 173.614 23.496 173.35 24.048C173.11 24.576 172.954 25.08 172.882 25.56C172.882 25.584 172.87 25.62 172.846 25.668C172.846 25.716 172.846 25.764 172.846 25.812C172.846 26.076 172.918 26.28 173.062 26.424C173.206 26.544 173.374 26.604 173.566 26.604C173.974 26.604 174.358 26.472 174.718 26.208C175.078 25.944 175.39 25.656 175.654 25.344C176.206 24.744 176.71 24.084 177.166 23.364C177.622 22.644 178.078 21.876 178.534 21.06C178.606 20.964 178.678 20.916 178.75 20.916C178.846 20.916 178.894 20.988 178.894 21.132C178.894 21.252 178.87 21.348 178.822 21.42C178.39 22.212 177.922 23.004 177.418 23.796C176.938 24.588 176.35 25.332 175.654 26.028C175.342 26.34 174.982 26.628 174.574 26.892C174.166 27.132 173.71 27.252 173.206 27.252ZM170.542 15.768C171.982 14.712 173.278 13.644 174.43 12.564C175.582 11.484 176.746 10.32 177.922 9.072C178.258 8.712 178.69 8.232 179.218 7.632C179.77 7.032 180.31 6.384 180.838 5.688C181.366 4.992 181.762 4.32 182.026 3.672C182.266 3.12 182.386 2.652 182.386 2.268C182.386 1.62 182.086 1.296 181.486 1.296C181.174 1.296 180.826 1.392 180.442 1.584C180.058 1.776 179.698 2.04 179.362 2.376C178.21 3.456 177.082 4.776 175.978 6.336C174.898 7.872 173.89 9.468 172.954 11.124C172.042 12.78 171.238 14.328 170.542 15.768Z" fill="black"/>
<path d="M92.9164 30.168C92.6284 30.024 92.4004 29.82 92.2324 29.556C92.0884 29.292 92.0164 29.028 92.0164 28.764C92.0164 28.5 92.0884 28.284 92.2324 28.116C92.3044 28.02 92.3884 27.96 92.4844 27.936C92.6044 27.936 92.6404 27.996 92.5924 28.116C92.5204 28.476 92.6884 28.812 93.0964 29.124C93.5044 29.436 93.8764 29.64 94.2124 29.736C94.5724 29.808 94.9324 29.844 95.2924 29.844C96.0364 29.844 96.6964 29.736 97.2724 29.52C98.1364 29.232 98.9884 28.632 99.8284 27.72C100.692 26.832 101.496 25.836 102.24 24.732C102.864 23.772 103.476 22.704 104.076 21.528C104.676 20.352 105.276 19.14 105.876 17.892C105.396 17.844 104.808 17.796 104.112 17.748C103.416 17.7 102.696 17.676 101.952 17.676C100.992 17.676 100.068 17.76 99.1804 17.928C98.2924 18.072 97.6564 18.384 97.2724 18.864C97.0804 19.128 96.9844 19.416 96.9844 19.728C96.9844 19.8 96.9844 19.872 96.9844 19.944C97.0084 20.016 97.0324 20.088 97.0564 20.16C97.0564 20.184 97.0564 20.208 97.0564 20.232C97.0804 20.232 97.0924 20.244 97.0924 20.268C97.0924 20.316 97.0564 20.34 96.9844 20.34C96.8644 20.34 96.7924 20.28 96.7684 20.16C96.7444 20.088 96.7204 19.992 96.6964 19.872C96.6724 19.752 96.6604 19.632 96.6604 19.512C96.6604 19.176 96.7324 18.852 96.8764 18.54C97.2604 17.772 97.8604 17.244 98.6764 16.956C99.4924 16.668 100.38 16.524 101.34 16.524C102.228 16.524 103.116 16.596 104.004 16.74C104.892 16.884 105.636 17.016 106.236 17.136C107.028 15.6 107.844 14.088 108.684 12.6C109.548 11.112 110.484 9.78 111.492 8.604C112.5 7.428 113.616 6.528 114.84 5.904C113.664 5.76 112.452 5.568 111.204 5.328C109.98 5.064 108.948 4.86 108.108 4.716C107.58 4.62 106.98 4.56 106.308 4.536C105.636 4.488 104.928 4.464 104.184 4.464C102.864 4.464 101.544 4.548 100.224 4.716C98.9044 4.86 97.8484 5.112 97.0564 5.472C95.6644 6.096 94.4644 6.96 93.4564 8.064C92.4484 9.144 91.9444 10.5 91.9444 12.132C91.9444 12.804 92.0524 13.38 92.2684 13.86C92.5084 14.316 92.8084 14.664 93.1684 14.904C93.5764 15.144 93.9964 15.264 94.4284 15.264C94.9564 15.264 95.4964 15.108 96.0484 14.796C96.6004 14.46 97.0804 13.98 97.4884 13.356C97.6804 13.044 97.8604 12.588 98.0284 11.988C98.2204 11.388 98.3164 10.776 98.3164 10.152C98.3164 9.816 98.2804 9.492 98.2084 9.18C98.1604 8.868 98.0524 8.592 97.8844 8.352C97.8364 8.256 97.8124 8.208 97.8124 8.208C97.8124 8.136 97.8484 8.1 97.9204 8.1C98.0164 8.1 98.1004 8.16 98.1724 8.28C98.2924 8.448 98.4124 8.712 98.5324 9.072C98.6764 9.408 98.7724 9.72 98.8204 10.008C98.8444 10.152 98.8564 10.296 98.8564 10.44C98.8804 10.584 98.8924 10.728 98.8924 10.872C98.8924 11.352 98.8324 11.844 98.7124 12.348C98.5924 12.828 98.4004 13.272 98.1364 13.68C97.7524 14.328 97.2364 14.82 96.5884 15.156C95.9404 15.468 95.2684 15.624 94.5724 15.624C94.0204 15.624 93.4924 15.516 92.9884 15.3C92.2444 14.94 91.6924 14.424 91.3324 13.752C90.9964 13.08 90.8284 12.348 90.8284 11.556C90.8284 11.028 90.8884 10.5 91.0084 9.972C91.1524 9.42 91.3444 8.892 91.5844 8.388C91.9924 7.5 92.5564 6.72 93.2764 6.048C93.9964 5.376 94.7164 4.848 95.4364 4.464C96.6364 3.816 97.8364 3.36 99.0364 3.096C100.26 2.832 101.496 2.7 102.744 2.7C103.776 2.7 104.82 2.772 105.876 2.916C106.932 3.06 108 3.264 109.08 3.528C110.304 3.816 111.564 4.14 112.86 4.5C113.34 4.644 113.916 4.8 114.588 4.968C115.26 5.136 115.932 5.256 116.604 5.328C116.7 5.328 116.784 5.328 116.856 5.328C116.928 5.304 117.012 5.292 117.108 5.292C117.348 5.292 117.612 5.328 117.9 5.4C118.356 5.376 118.8 5.292 119.232 5.148C119.664 5.004 120.012 4.74 120.276 4.356C120.372 4.212 120.42 4.08 120.42 3.96C120.42 3.84 120.408 3.732 120.384 3.636C120.36 3.516 120.384 3.42 120.456 3.348C120.504 3.3 120.564 3.276 120.636 3.276C120.756 3.276 120.852 3.348 120.924 3.492C120.948 3.564 120.96 3.684 120.96 3.852C120.96 3.924 120.96 4.008 120.96 4.104C120.96 4.176 120.936 4.248 120.888 4.32C120.72 4.8 120.396 5.184 119.916 5.472C119.436 5.736 118.956 5.904 118.476 5.976C118.284 6 118.068 6.024 117.828 6.048C117.612 6.048 117.384 6.048 117.144 6.048C116.952 6.048 116.748 6.048 116.532 6.048C116.316 6.048 116.1 6.036 115.884 6.012C115.092 6.372 114.264 7.056 113.4 8.064C112.224 9.456 111.216 10.968 110.376 12.6C109.56 14.208 108.792 15.84 108.072 17.496C108.408 17.544 108.744 17.592 109.08 17.64C109.416 17.664 109.74 17.676 110.052 17.676C110.7 17.676 111.276 17.592 111.78 17.424C111.828 17.256 111.912 17.028 112.032 16.74C112.176 16.428 112.308 16.2 112.428 16.056C112.812 15.528 113.196 15.264 113.58 15.264C113.892 15.264 114.048 15.42 114.048 15.732C114.048 15.924 113.94 16.188 113.724 16.524C113.556 16.74 113.352 16.944 113.112 17.136C112.896 17.328 112.668 17.472 112.428 17.568C112.26 17.904 112.14 18.264 112.068 18.648C111.996 19.032 111.96 19.392 111.96 19.728C111.96 20.256 112.044 20.676 112.212 20.988C112.236 21.012 112.248 21.06 112.248 21.132C112.248 21.204 112.2 21.252 112.104 21.276C112.032 21.3 111.96 21.276 111.888 21.204C111.576 20.82 111.42 20.256 111.42 19.512C111.42 18.912 111.528 18.324 111.744 17.748C111.216 17.964 110.472 18.072 109.512 18.072C109.248 18.072 108.972 18.072 108.684 18.072C108.42 18.048 108.132 18.024 107.82 18C107.292 19.176 106.728 20.352 106.128 21.528C105.552 22.704 104.88 23.82 104.112 24.876C103.272 26.052 102.324 27.108 101.268 28.044C100.212 28.98 99.0124 29.688 97.6684 30.168C96.9244 30.432 96.0364 30.564 95.0044 30.564C94.5964 30.564 94.2124 30.528 93.8524 30.456C93.4924 30.408 93.1804 30.312 92.9164 30.168ZM117.034 27.216C116.29 27.216 115.75 27 115.414 26.568C115.102 26.136 114.946 25.608 114.946 24.984C114.946 24.192 115.102 23.328 115.414 22.392C115.75 21.456 116.134 20.568 116.566 19.728C116.998 18.864 117.346 18.192 117.61 17.712C118.138 16.824 118.666 16.272 119.194 16.056C119.746 15.84 120.418 15.732 121.21 15.732C120.97 15.804 120.658 16.092 120.274 16.596C119.89 17.076 119.482 17.676 119.05 18.396C118.642 19.116 118.246 19.896 117.862 20.736C117.502 21.552 117.202 22.356 116.962 23.148C116.746 23.916 116.638 24.576 116.638 25.128C116.638 25.536 116.71 25.872 116.854 26.136C117.022 26.4 117.274 26.532 117.61 26.532C117.898 26.532 118.234 26.424 118.618 26.208C119.002 25.968 119.35 25.68 119.662 25.344C120.718 24.168 121.57 22.884 122.218 21.492C122.89 20.076 123.634 18.672 124.45 17.28C124.978 16.392 125.506 15.84 126.034 15.624C126.586 15.408 127.258 15.3 128.05 15.3C127.81 15.372 127.486 15.672 127.078 16.2C126.67 16.704 126.238 17.34 125.782 18.108C125.35 18.876 124.942 19.704 124.558 20.592C124.174 21.456 123.85 22.296 123.586 23.112C123.346 23.928 123.226 24.624 123.226 25.2C123.226 25.584 123.298 25.908 123.442 26.172C123.61 26.412 123.85 26.532 124.162 26.532C124.45 26.532 124.786 26.412 125.17 26.172C125.554 25.932 125.902 25.656 126.214 25.344C126.766 24.744 127.27 24.084 127.726 23.364C128.182 22.644 128.638 21.876 129.094 21.06C129.166 20.964 129.226 20.916 129.274 20.916C129.37 20.916 129.418 20.988 129.418 21.132C129.418 21.252 129.394 21.348 129.346 21.42C128.914 22.212 128.458 23.004 127.978 23.796C127.498 24.588 126.91 25.332 126.214 26.028C125.83 26.412 125.374 26.736 124.846 27C124.342 27.24 123.838 27.312 123.334 27.216C122.662 27.096 122.182 26.832 121.894 26.424C121.606 25.992 121.462 25.476 121.462 24.876C121.462 24.396 121.534 23.892 121.678 23.364C121.39 23.82 121.078 24.276 120.742 24.732C120.43 25.188 120.07 25.62 119.662 26.028C119.326 26.364 118.918 26.652 118.438 26.892C117.982 27.108 117.514 27.216 117.034 27.216ZM135.875 26.352C135.467 26.688 135.059 26.928 134.651 27.072C134.267 27.24 133.907 27.324 133.571 27.324C132.971 27.324 132.467 27.12 132.059 26.712C131.675 26.28 131.483 25.716 131.483 25.02C131.483 24.612 131.579 24.12 131.771 23.544C132.083 22.68 132.551 21.852 133.175 21.06C133.799 20.268 134.399 19.464 134.975 18.648C135.335 18.168 135.515 17.7 135.515 17.244C135.515 17.004 135.443 16.8 135.299 16.632C135.179 16.464 134.951 16.368 134.615 16.344C134.423 16.296 134.207 16.272 133.967 16.272C133.727 16.272 133.487 16.272 133.247 16.272H132.239C132.095 16.272 131.963 16.272 131.843 16.272C131.723 16.272 131.615 16.26 131.519 16.236C131.423 16.836 131.219 17.508 130.907 18.252C130.619 18.996 130.283 19.74 129.899 20.484C129.515 21.228 129.143 21.9 128.783 22.5C128.687 22.644 128.603 22.716 128.531 22.716C128.459 22.716 128.423 22.644 128.423 22.5C128.423 22.332 128.459 22.2 128.531 22.104C129.035 21.12 129.515 20.16 129.971 19.224C130.451 18.264 130.775 17.268 130.943 16.236C130.391 15.924 130.019 15.384 129.827 14.616C129.803 14.496 129.779 14.388 129.755 14.292C129.755 14.172 129.755 14.064 129.755 13.968C129.755 13.536 129.839 13.176 130.007 12.888C130.199 12.576 130.415 12.42 130.655 12.42C130.991 12.42 131.267 12.744 131.483 13.392C131.531 13.56 131.567 13.752 131.591 13.968C131.615 14.16 131.627 14.352 131.627 14.544C131.627 14.76 131.615 14.964 131.591 15.156C131.591 15.324 131.579 15.468 131.555 15.588C131.723 15.636 131.939 15.672 132.203 15.696C132.491 15.72 132.803 15.732 133.139 15.732C133.643 15.732 134.171 15.72 134.723 15.696C135.275 15.648 135.743 15.624 136.127 15.624C136.583 15.624 136.895 15.72 137.063 15.912C137.231 16.104 137.315 16.344 137.315 16.632C137.315 16.992 137.219 17.388 137.027 17.82C136.859 18.228 136.691 18.576 136.523 18.864C136.211 19.44 135.911 19.956 135.623 20.412C135.359 20.844 135.059 21.312 134.723 21.816C134.219 22.584 133.847 23.292 133.607 23.94C133.391 24.564 133.283 25.092 133.283 25.524C133.283 26.268 133.559 26.64 134.111 26.64C134.567 26.64 135.155 26.316 135.875 25.668C136.331 25.26 136.751 24.78 137.135 24.228C137.543 23.652 137.903 23.076 138.215 22.5C138.551 21.9 138.827 21.408 139.043 21.024C139.091 20.952 139.139 20.916 139.187 20.916C139.283 20.916 139.331 21.012 139.331 21.204C139.331 21.348 139.295 21.48 139.223 21.6C138.815 22.344 138.347 23.16 137.819 24.048C137.291 24.936 136.643 25.704 135.875 26.352ZM145.464 27.216C144.768 27.216 144.216 27 143.808 26.568C143.424 26.136 143.232 25.596 143.232 24.948C143.232 24.636 143.292 24.276 143.412 23.868C143.748 22.812 144.276 21.768 144.996 20.736C145.74 19.68 146.352 18.636 146.832 17.604C147 17.268 147.084 16.968 147.084 16.704C147.084 16.44 147 16.248 146.832 16.128C146.688 15.984 146.508 15.912 146.292 15.912C145.98 15.912 145.584 16.044 145.104 16.308C144.648 16.548 144.12 17.016 143.52 17.712C143.16 18.144 142.752 18.672 142.296 19.296C141.84 19.92 141.468 20.484 141.18 20.988C140.7 21.804 140.268 22.632 139.884 23.472C139.5 24.288 139.164 25.044 138.876 25.74C138.636 26.292 138.348 26.652 138.012 26.82C137.676 26.964 137.352 27.024 137.04 27C136.728 26.976 136.488 26.976 136.32 27C136.992 25.68 137.652 24.288 138.3 22.824C138.948 21.36 139.5 19.896 139.956 18.432C140.172 17.76 140.352 17.112 140.496 16.488C140.64 15.84 140.7 15.42 140.676 15.228V15.156C140.676 14.964 140.772 14.916 140.964 15.012C141.276 15.18 141.492 15.432 141.612 15.768C141.732 16.08 141.792 16.44 141.792 16.848C141.792 17.304 141.732 17.796 141.612 18.324C141.492 18.828 141.348 19.284 141.18 19.692C141.492 19.26 141.828 18.828 142.188 18.396C142.548 17.94 142.944 17.508 143.376 17.1C143.88 16.596 144.42 16.164 144.996 15.804C145.572 15.42 146.196 15.228 146.868 15.228C147.516 15.228 147.984 15.372 148.272 15.66C148.584 15.948 148.74 16.332 148.74 16.812C148.74 17.316 148.596 17.892 148.308 18.54C147.996 19.284 147.612 20.028 147.156 20.772C146.724 21.516 146.328 22.236 145.968 22.932C145.896 23.076 145.776 23.304 145.608 23.616C145.464 23.904 145.332 24.228 145.212 24.588C145.164 24.756 145.116 24.936 145.068 25.128C145.02 25.296 144.996 25.476 144.996 25.668C144.996 25.908 145.044 26.136 145.14 26.352C145.26 26.544 145.476 26.64 145.788 26.64C146.196 26.64 146.58 26.508 146.94 26.244C147.324 25.956 147.648 25.656 147.912 25.344C148.464 24.744 148.968 24.084 149.424 23.364C149.904 22.62 150.372 21.84 150.828 21.024C150.9 20.928 150.948 20.88 150.972 20.88C151.068 20.88 151.116 20.988 151.116 21.204C151.116 21.348 151.092 21.456 151.044 21.528C150.612 22.32 150.156 23.1 149.676 23.868C149.196 24.612 148.608 25.332 147.912 26.028C147.6 26.34 147.24 26.616 146.832 26.856C146.424 27.096 145.968 27.216 145.464 27.216ZM151.59 27.216C150.918 27.216 150.426 27 150.114 26.568C149.802 26.112 149.646 25.56 149.646 24.912C149.646 24.72 149.658 24.528 149.682 24.336C149.73 24.12 149.778 23.904 149.826 23.688C150.09 22.728 150.498 21.66 151.05 20.484C151.626 19.284 152.178 18.216 152.706 17.28C153.018 16.752 153.306 16.38 153.57 16.164C153.834 15.924 154.122 15.756 154.434 15.66C154.746 15.54 155.118 15.408 155.55 15.264C155.67 15.216 155.79 15.18 155.91 15.156C156.03 15.132 156.162 15.108 156.306 15.084C155.826 15.564 155.334 16.14 154.83 16.812C154.35 17.484 153.822 18.408 153.246 19.584C152.934 20.208 152.622 20.904 152.31 21.672C152.022 22.44 151.77 23.16 151.554 23.832C151.338 24.504 151.218 25.032 151.194 25.416C151.17 25.872 151.23 26.196 151.374 26.388C151.518 26.58 151.71 26.676 151.95 26.676C152.358 26.676 152.742 26.532 153.102 26.244C153.486 25.956 153.822 25.656 154.11 25.344C154.638 24.744 155.13 24.084 155.586 23.364C156.066 22.644 156.534 21.876 156.99 21.06C157.062 20.964 157.122 20.916 157.17 20.916C157.266 20.916 157.314 20.988 157.314 21.132C157.314 21.252 157.29 21.348 157.242 21.42C156.81 22.212 156.354 23.004 155.874 23.796C155.394 24.588 154.806 25.332 154.11 26.028C153.798 26.34 153.426 26.616 152.994 26.856C152.586 27.096 152.118 27.216 151.59 27.216ZM155.982 13.068C155.718 13.068 155.49 12.972 155.298 12.78C155.13 12.588 155.046 12.36 155.046 12.096C155.046 11.76 155.178 11.46 155.442 11.196C155.73 10.932 156.042 10.776 156.378 10.728C156.642 10.728 156.858 10.824 157.026 11.016C157.218 11.184 157.314 11.412 157.314 11.7C157.314 12.012 157.182 12.324 156.918 12.636C156.654 12.924 156.342 13.068 155.982 13.068ZM157.741 27.288C157.237 27.288 156.769 27.192 156.337 27C155.929 26.784 155.593 26.424 155.329 25.92C155.137 25.488 155.041 25.02 155.041 24.516C155.041 23.988 155.137 23.496 155.329 23.04C155.521 22.632 155.737 22.272 155.977 21.96C156.217 21.648 156.481 21.468 156.769 21.42C156.985 20.94 157.309 20.304 157.741 19.512C158.197 18.72 158.701 17.928 159.253 17.136C159.829 16.344 160.369 15.708 160.873 15.228C160.993 15.108 161.197 14.916 161.485 14.652C161.797 14.364 162.145 14.088 162.529 13.824C162.937 13.56 163.309 13.404 163.645 13.356C163.717 13.332 163.813 13.32 163.933 13.32C164.221 13.32 164.437 13.392 164.581 13.536C164.725 13.68 164.797 13.848 164.797 14.04C164.797 14.232 164.725 14.424 164.581 14.616C164.437 14.808 164.209 14.964 163.897 15.084C163.777 15.108 163.597 15.144 163.357 15.192C163.141 15.24 162.817 15.264 162.385 15.264C162.217 15.504 162.133 15.84 162.133 16.272C162.133 16.752 162.205 17.292 162.349 17.892C162.517 18.492 162.673 19.08 162.817 19.656C162.985 20.208 163.069 20.676 163.069 21.06C163.117 21.948 162.973 22.848 162.637 23.76C162.325 24.648 161.821 25.404 161.125 26.028L160.621 26.388C160.693 26.412 160.765 26.436 160.837 26.46C160.909 26.46 160.981 26.46 161.053 26.46C161.461 26.46 161.917 26.34 162.421 26.1C162.925 25.836 163.369 25.512 163.753 25.128C164.329 24.576 164.821 23.988 165.229 23.364C165.661 22.74 166.057 22.092 166.417 21.42C166.441 21.324 166.501 21.276 166.597 21.276C166.717 21.276 166.777 21.372 166.777 21.564C166.777 21.66 166.741 21.768 166.669 21.888C166.309 22.56 165.865 23.268 165.337 24.012C164.833 24.732 164.305 25.344 163.753 25.848C163.321 26.232 162.853 26.52 162.349 26.712C161.869 26.88 161.461 26.964 161.125 26.964C160.885 26.964 160.693 26.94 160.549 26.892C160.405 26.844 160.273 26.772 160.153 26.676C159.817 26.844 159.433 26.988 159.001 27.108C158.593 27.228 158.173 27.288 157.741 27.288ZM159.109 26.352C159.589 26.016 159.961 25.584 160.225 25.056C160.513 24.528 160.729 23.964 160.873 23.364C161.065 22.644 161.173 21.9 161.197 21.132C161.245 20.364 161.269 19.668 161.269 19.044V17.784C161.269 17.28 161.329 16.764 161.449 16.236C161.593 15.708 161.737 15.384 161.881 15.264C161.521 15.408 161.125 15.732 160.693 16.236C160.261 16.716 159.829 17.292 159.397 17.964C158.965 18.612 158.569 19.248 158.209 19.872C157.873 20.496 157.609 21.012 157.417 21.42C157.873 21.396 158.185 21.528 158.353 21.816C158.521 22.08 158.569 22.272 158.497 22.392C158.305 22.344 158.173 22.32 158.101 22.32C157.741 22.32 157.405 22.452 157.093 22.716C156.781 22.956 156.517 23.316 156.301 23.796C156.085 24.252 155.977 24.696 155.977 25.128C155.977 25.704 156.145 26.124 156.481 26.388C156.817 26.652 157.213 26.784 157.669 26.784C158.197 26.784 158.677 26.64 159.109 26.352ZM173.206 27.252C172.39 27.252 171.814 27.012 171.478 26.532C171.166 26.052 171.01 25.536 171.01 24.984C171.01 24.744 171.034 24.516 171.082 24.3C171.13 24.06 171.19 23.832 171.262 23.616C171.67 22.56 172.234 21.552 172.954 20.592C173.674 19.632 174.274 18.636 174.754 17.604C174.922 17.292 175.006 17.004 175.006 16.74C175.006 16.452 174.922 16.236 174.754 16.092C174.586 15.948 174.406 15.876 174.214 15.876C173.758 15.876 173.254 16.08 172.702 16.488C172.174 16.872 171.658 17.364 171.154 17.964C170.698 18.492 170.23 19.104 169.75 19.8C169.27 20.472 168.814 21.192 168.382 21.96C167.974 22.656 167.554 23.388 167.122 24.156C166.69 24.9 166.342 25.536 166.078 26.064C165.886 26.472 165.682 26.736 165.466 26.856C165.25 26.976 165.046 27.036 164.854 27.036C164.758 27.036 164.662 27.024 164.566 27C164.47 27 164.386 27 164.314 27C164.53 26.184 164.926 25.068 165.502 23.652C166.102 22.212 166.81 20.508 167.626 18.54C168.082 17.484 168.622 16.272 169.246 14.904C169.87 13.512 170.578 12.096 171.37 10.656C172.162 9.192 173.038 7.812 173.998 6.516C174.958 5.196 175.99 4.044 177.094 3.06C178.222 2.076 179.41 1.392 180.658 1.008C180.802 0.983998 180.946 0.959998 181.09 0.935999C181.234 0.911999 181.378 0.899999 181.522 0.899999C181.882 0.899999 182.194 0.983999 182.458 1.152C182.794 1.368 182.962 1.752 182.962 2.304C182.962 2.688 182.854 3.156 182.638 3.708C182.254 4.668 181.618 5.7 180.73 6.804C179.866 7.908 178.846 9.036 177.67 10.188C176.206 11.604 174.802 12.852 173.458 13.932C172.114 15.012 171.034 15.864 170.218 16.488C169.738 17.52 169.342 18.42 169.03 19.188C168.718 19.932 168.514 20.472 168.418 20.808C168.802 20.232 169.234 19.608 169.714 18.936C170.218 18.24 170.662 17.7 171.046 17.316C171.598 16.764 172.15 16.296 172.702 15.912C173.254 15.528 173.794 15.312 174.322 15.264C175.138 15.192 175.726 15.3 176.086 15.588C176.446 15.852 176.626 16.248 176.626 16.776C176.626 17.304 176.482 17.892 176.194 18.54C175.882 19.284 175.51 20.028 175.078 20.772C174.646 21.516 174.25 22.236 173.89 22.932C173.794 23.124 173.614 23.496 173.35 24.048C173.11 24.576 172.954 25.08 172.882 25.56C172.882 25.584 172.87 25.62 172.846 25.668C172.846 25.716 172.846 25.764 172.846 25.812C172.846 26.076 172.918 26.28 173.062 26.424C173.206 26.544 173.374 26.604 173.566 26.604C173.974 26.604 174.358 26.472 174.718 26.208C175.078 25.944 175.39 25.656 175.654 25.344C176.206 24.744 176.71 24.084 177.166 23.364C177.622 22.644 178.078 21.876 178.534 21.06C178.606 20.964 178.678 20.916 178.75 20.916C178.846 20.916 178.894 20.988 178.894 21.132C178.894 21.252 178.87 21.348 178.822 21.42C178.39 22.212 177.922 23.004 177.418 23.796C176.938 24.588 176.35 25.332 175.654 26.028C175.342 26.34 174.982 26.628 174.574 26.892C174.166 27.132 173.71 27.252 173.206 27.252ZM170.542 15.768C171.982 14.712 173.278 13.644 174.43 12.564C175.582 11.484 176.746 10.32 177.922 9.072C178.258 8.712 178.69 8.232 179.218 7.632C179.77 7.032 180.31 6.384 180.838 5.688C181.366 4.992 181.762 4.32 182.026 3.672C182.266 3.12 182.386 2.652 182.386 2.268C182.386 1.62 182.086 1.296 181.486 1.296C181.174 1.296 180.826 1.392 180.442 1.584C180.058 1.776 179.698 2.04 179.362 2.376C178.21 3.456 177.082 4.776 175.978 6.336C174.898 7.872 173.89 9.468 172.954 11.124C172.042 12.78 171.238 14.328 170.542 15.768Z" fill="#6B705C"/>
</svg>
