<svg width="189" height="22" viewBox="0 0 189 22" fill="none" xmlns="http://www.w3.org/2000/svg">
<path d="M2.37695 4.87695L0.167969 4.35645V2.93457L5.10645 2.79492H8.35645C10.9209 2.79492 12.9268 3.5651 14.374 5.10547C15.8213 6.63737 16.5449 8.81673 16.5449 11.6436C16.5449 13.5309 16.1937 15.1813 15.4912 16.5947C14.7972 18.0081 13.7985 19.0957 12.4951 19.8574C11.1917 20.6191 9.68522 21 7.97559 21H0.167969V19.4385L2.37695 18.918V4.87695ZM8.10254 18.918C9.80371 18.918 11.1367 18.3255 12.1016 17.1406C13.0749 15.9557 13.5615 14.1657 13.5615 11.7705C13.5615 9.43457 13.0918 7.70378 12.1523 6.57812C11.2214 5.44401 9.91374 4.87695 8.22949 4.87695H5.10645V18.918H8.10254ZM23.5527 9.11719C24.0436 8.58398 24.6234 8.0931 25.292 7.64453C25.9691 7.1875 26.7012 6.95898 27.4883 6.95898C27.8691 6.95898 28.2288 6.98861 28.5674 7.04785C28.9144 7.1071 29.1979 7.17057 29.418 7.23828C29.638 7.29753 29.7734 7.33561 29.8242 7.35254L29.6973 11.123H27.9961L27.6152 9.16797C26.752 9.16797 26.0072 9.37533 25.3809 9.79004C24.7546 10.2048 24.2425 10.6745 23.8447 11.1992V18.918L26.4473 19.5654V21H19.0332V19.5654L21.2422 18.918V9.29492L19.0332 8.77441V7.35254L23.3242 7.22559L23.5527 9.11719ZM33.8486 14.5C33.8486 15.9219 34.1956 17.0602 34.8896 17.915C35.5837 18.7614 36.4935 19.1846 37.6191 19.1846C38.3809 19.1846 39.0876 19.0788 39.7393 18.8672C40.391 18.6556 40.9284 18.4271 41.3516 18.1816C41.7747 17.9277 41.9863 17.7839 41.9863 17.75L42.9004 19.0957C42.9004 19.1296 42.6169 19.3411 42.0498 19.7305C41.4912 20.1113 40.7972 20.4626 39.9678 20.7842C39.1468 21.0973 38.2751 21.2539 37.3525 21.2539C35.3044 21.2539 33.7513 20.6361 32.6934 19.4004C31.6439 18.1647 31.1191 16.4466 31.1191 14.2461C31.1191 12.875 31.3857 11.6351 31.9189 10.5264C32.4606 9.41764 33.2139 8.5459 34.1787 7.91113C35.152 7.27637 36.2565 6.95898 37.4922 6.95898C41.1315 6.95898 42.9512 8.99447 42.9512 13.0654C42.9512 13.3447 42.9342 13.624 42.9004 13.9033C42.8665 14.1826 42.8411 14.3646 42.8242 14.4492L33.8486 14.5ZM40.1963 12.5449C40.1963 11.487 39.9678 10.6322 39.5107 9.98047C39.0622 9.32031 38.3428 8.99023 37.3525 8.99023C36.3454 8.99023 35.5456 9.32878 34.9531 10.0059C34.3691 10.6829 34.0348 11.5293 33.9502 12.5449H40.1963ZM46.0742 8C46.2096 7.94922 46.5482 7.84342 47.0898 7.68262C47.64 7.51335 48.2874 7.35254 49.0322 7.2002C49.777 7.03939 50.4795 6.95898 51.1396 6.95898C52.7139 6.95898 53.9072 7.27214 54.7197 7.89844C55.5407 8.52474 55.9512 9.55729 55.9512 10.9961V18.918L58.0332 19.4385V20.873L53.9961 21L53.4502 19.1846C52.8916 19.7432 52.2441 20.2298 51.5078 20.6445C50.7799 21.0508 50.0055 21.2539 49.1846 21.2539C47.9574 21.2539 47.001 20.9154 46.3154 20.2383C45.6299 19.5527 45.2871 18.5921 45.2871 17.3564C45.2871 15.9176 45.8034 14.8893 46.8359 14.2715C47.8685 13.6452 49.3454 13.332 51.2666 13.332H53.3486V11.25C53.3486 10.4883 53.137 9.90853 52.7139 9.51074C52.2907 9.11296 51.6771 8.91406 50.873 8.91406C50.4076 8.91406 49.9801 8.94368 49.5908 9.00293C49.2015 9.06217 48.8926 9.12142 48.6641 9.18066C48.444 9.23991 48.3086 9.27799 48.2578 9.29492L47.8896 11.25H46.2012L46.0742 8ZM51.5332 15.0205C50.2467 15.0205 49.3242 15.194 48.7656 15.541C48.2155 15.888 47.9404 16.4508 47.9404 17.2295C47.9404 17.8219 48.1097 18.2959 48.4482 18.6514C48.7868 19.0068 49.2523 19.1846 49.8447 19.1846C50.4202 19.1846 50.9661 19.028 51.4824 18.7148C51.9987 18.4017 52.4388 18.0632 52.8027 17.6992C53.1667 17.3353 53.3486 17.1364 53.3486 17.1025V15.0205H51.5332ZM64.3809 9.06641C64.8717 8.60091 65.5488 8.13542 66.4121 7.66992C67.2754 7.19596 68.1683 6.95898 69.0908 6.95898C70.8428 6.95898 72.0488 7.70378 72.709 9.19336C73.1406 8.76172 73.7965 8.28353 74.6768 7.75879C75.5654 7.22559 76.5218 6.95898 77.5459 6.95898C78.9339 6.95898 79.9495 7.36947 80.5928 8.19043C81.2445 9.00293 81.5703 10.154 81.5703 11.6436V18.918L83.5254 19.5654V21H77.2793V19.5654L78.9678 18.918V11.8975C78.9678 10.9411 78.8027 10.2471 78.4727 9.81543C78.1426 9.38379 77.5713 9.16797 76.7588 9.16797C76.0986 9.16797 75.4977 9.32454 74.9561 9.6377C74.4229 9.95085 73.9827 10.2894 73.6357 10.6533C73.2887 11.0173 73.1152 11.2161 73.1152 11.25V18.918L74.8164 19.5654V21H68.8242V19.5654L70.5254 18.918V11.8975C70.5254 10.9411 70.3604 10.2471 70.0303 9.81543C69.7002 9.38379 69.1289 9.16797 68.3164 9.16797C67.6562 9.16797 67.0553 9.32454 66.5137 9.6377C65.9805 9.95085 65.5404 10.2894 65.1934 10.6533C64.8464 11.0173 64.6729 11.2161 64.6729 11.25V18.918L66.3613 19.5654V21H59.8613V19.5654L62.0703 18.918V9.29492L59.8613 8.77441V7.35254L64.1523 7.22559L64.3809 9.06641Z" fill="black"/>
<path d="M2.37695 4.87695L0.167969 4.35645V2.93457L5.10645 2.79492H8.35645C10.9209 2.79492 12.9268 3.5651 14.374 5.10547C15.8213 6.63737 16.5449 8.81673 16.5449 11.6436C16.5449 13.5309 16.1937 15.1813 15.4912 16.5947C14.7972 18.0081 13.7985 19.0957 12.4951 19.8574C11.1917 20.6191 9.68522 21 7.97559 21H0.167969V19.4385L2.37695 18.918V4.87695ZM8.10254 18.918C9.80371 18.918 11.1367 18.3255 12.1016 17.1406C13.0749 15.9557 13.5615 14.1657 13.5615 11.7705C13.5615 9.43457 13.0918 7.70378 12.1523 6.57812C11.2214 5.44401 9.91374 4.87695 8.22949 4.87695H5.10645V18.918H8.10254ZM23.5527 9.11719C24.0436 8.58398 24.6234 8.0931 25.292 7.64453C25.9691 7.1875 26.7012 6.95898 27.4883 6.95898C27.8691 6.95898 28.2288 6.98861 28.5674 7.04785C28.9144 7.1071 29.1979 7.17057 29.418 7.23828C29.638 7.29753 29.7734 7.33561 29.8242 7.35254L29.6973 11.123H27.9961L27.6152 9.16797C26.752 9.16797 26.0072 9.37533 25.3809 9.79004C24.7546 10.2048 24.2425 10.6745 23.8447 11.1992V18.918L26.4473 19.5654V21H19.0332V19.5654L21.2422 18.918V9.29492L19.0332 8.77441V7.35254L23.3242 7.22559L23.5527 9.11719ZM33.8486 14.5C33.8486 15.9219 34.1956 17.0602 34.8896 17.915C35.5837 18.7614 36.4935 19.1846 37.6191 19.1846C38.3809 19.1846 39.0876 19.0788 39.7393 18.8672C40.391 18.6556 40.9284 18.4271 41.3516 18.1816C41.7747 17.9277 41.9863 17.7839 41.9863 17.75L42.9004 19.0957C42.9004 19.1296 42.6169 19.3411 42.0498 19.7305C41.4912 20.1113 40.7972 20.4626 39.9678 20.7842C39.1468 21.0973 38.2751 21.2539 37.3525 21.2539C35.3044 21.2539 33.7513 20.6361 32.6934 19.4004C31.6439 18.1647 31.1191 16.4466 31.1191 14.2461C31.1191 12.875 31.3857 11.6351 31.9189 10.5264C32.4606 9.41764 33.2139 8.5459 34.1787 7.91113C35.152 7.27637 36.2565 6.95898 37.4922 6.95898C41.1315 6.95898 42.9512 8.99447 42.9512 13.0654C42.9512 13.3447 42.9342 13.624 42.9004 13.9033C42.8665 14.1826 42.8411 14.3646 42.8242 14.4492L33.8486 14.5ZM40.1963 12.5449C40.1963 11.487 39.9678 10.6322 39.5107 9.98047C39.0622 9.32031 38.3428 8.99023 37.3525 8.99023C36.3454 8.99023 35.5456 9.32878 34.9531 10.0059C34.3691 10.6829 34.0348 11.5293 33.9502 12.5449H40.1963ZM46.0742 8C46.2096 7.94922 46.5482 7.84342 47.0898 7.68262C47.64 7.51335 48.2874 7.35254 49.0322 7.2002C49.777 7.03939 50.4795 6.95898 51.1396 6.95898C52.7139 6.95898 53.9072 7.27214 54.7197 7.89844C55.5407 8.52474 55.9512 9.55729 55.9512 10.9961V18.918L58.0332 19.4385V20.873L53.9961 21L53.4502 19.1846C52.8916 19.7432 52.2441 20.2298 51.5078 20.6445C50.7799 21.0508 50.0055 21.2539 49.1846 21.2539C47.9574 21.2539 47.001 20.9154 46.3154 20.2383C45.6299 19.5527 45.2871 18.5921 45.2871 17.3564C45.2871 15.9176 45.8034 14.8893 46.8359 14.2715C47.8685 13.6452 49.3454 13.332 51.2666 13.332H53.3486V11.25C53.3486 10.4883 53.137 9.90853 52.7139 9.51074C52.2907 9.11296 51.6771 8.91406 50.873 8.91406C50.4076 8.91406 49.9801 8.94368 49.5908 9.00293C49.2015 9.06217 48.8926 9.12142 48.6641 9.18066C48.444 9.23991 48.3086 9.27799 48.2578 9.29492L47.8896 11.25H46.2012L46.0742 8ZM51.5332 15.0205C50.2467 15.0205 49.3242 15.194 48.7656 15.541C48.2155 15.888 47.9404 16.4508 47.9404 17.2295C47.9404 17.8219 48.1097 18.2959 48.4482 18.6514C48.7868 19.0068 49.2523 19.1846 49.8447 19.1846C50.4202 19.1846 50.9661 19.028 51.4824 18.7148C51.9987 18.4017 52.4388 18.0632 52.8027 17.6992C53.1667 17.3353 53.3486 17.1364 53.3486 17.1025V15.0205H51.5332ZM64.3809 9.06641C64.8717 8.60091 65.5488 8.13542 66.4121 7.66992C67.2754 7.19596 68.1683 6.95898 69.0908 6.95898C70.8428 6.95898 72.0488 7.70378 72.709 9.19336C73.1406 8.76172 73.7965 8.28353 74.6768 7.75879C75.5654 7.22559 76.5218 6.95898 77.5459 6.95898C78.9339 6.95898 79.9495 7.36947 80.5928 8.19043C81.2445 9.00293 81.5703 10.154 81.5703 11.6436V18.918L83.5254 19.5654V21H77.2793V19.5654L78.9678 18.918V11.8975C78.9678 10.9411 78.8027 10.2471 78.4727 9.81543C78.1426 9.38379 77.5713 9.16797 76.7588 9.16797C76.0986 9.16797 75.4977 9.32454 74.9561 9.6377C74.4229 9.95085 73.9827 10.2894 73.6357 10.6533C73.2887 11.0173 73.1152 11.2161 73.1152 11.25V18.918L74.8164 19.5654V21H68.8242V19.5654L70.5254 18.918V11.8975C70.5254 10.9411 70.3604 10.2471 70.0303 9.81543C69.7002 9.38379 69.1289 9.16797 68.3164 9.16797C67.6562 9.16797 67.0553 9.32454 66.5137 9.6377C65.9805 9.95085 65.5404 10.2894 65.1934 10.6533C64.8464 11.0173 64.6729 11.2161 64.6729 11.25V18.918L66.3613 19.5654V21H59.8613V19.5654L62.0703 18.918V9.29492L59.8613 8.77441V7.35254L64.1523 7.22559L64.3809 9.06641Z" fill="black"/>
<path d="M2.37695 4.87695L0.167969 4.35645V2.93457L5.10645 2.79492H8.35645C10.9209 2.79492 12.9268 3.5651 14.374 5.10547C15.8213 6.63737 16.5449 8.81673 16.5449 11.6436C16.5449 13.5309 16.1937 15.1813 15.4912 16.5947C14.7972 18.0081 13.7985 19.0957 12.4951 19.8574C11.1917 20.6191 9.68522 21 7.97559 21H0.167969V19.4385L2.37695 18.918V4.87695ZM8.10254 18.918C9.80371 18.918 11.1367 18.3255 12.1016 17.1406C13.0749 15.9557 13.5615 14.1657 13.5615 11.7705C13.5615 9.43457 13.0918 7.70378 12.1523 6.57812C11.2214 5.44401 9.91374 4.87695 8.22949 4.87695H5.10645V18.918H8.10254ZM23.5527 9.11719C24.0436 8.58398 24.6234 8.0931 25.292 7.64453C25.9691 7.1875 26.7012 6.95898 27.4883 6.95898C27.8691 6.95898 28.2288 6.98861 28.5674 7.04785C28.9144 7.1071 29.1979 7.17057 29.418 7.23828C29.638 7.29753 29.7734 7.33561 29.8242 7.35254L29.6973 11.123H27.9961L27.6152 9.16797C26.752 9.16797 26.0072 9.37533 25.3809 9.79004C24.7546 10.2048 24.2425 10.6745 23.8447 11.1992V18.918L26.4473 19.5654V21H19.0332V19.5654L21.2422 18.918V9.29492L19.0332 8.77441V7.35254L23.3242 7.22559L23.5527 9.11719ZM33.8486 14.5C33.8486 15.9219 34.1956 17.0602 34.8896 17.915C35.5837 18.7614 36.4935 19.1846 37.6191 19.1846C38.3809 19.1846 39.0876 19.0788 39.7393 18.8672C40.391 18.6556 40.9284 18.4271 41.3516 18.1816C41.7747 17.9277 41.9863 17.7839 41.9863 17.75L42.9004 19.0957C42.9004 19.1296 42.6169 19.3411 42.0498 19.7305C41.4912 20.1113 40.7972 20.4626 39.9678 20.7842C39.1468 21.0973 38.2751 21.2539 37.3525 21.2539C35.3044 21.2539 33.7513 20.6361 32.6934 19.4004C31.6439 18.1647 31.1191 16.4466 31.1191 14.2461C31.1191 12.875 31.3857 11.6351 31.9189 10.5264C32.4606 9.41764 33.2139 8.5459 34.1787 7.91113C35.152 7.27637 36.2565 6.95898 37.4922 6.95898C41.1315 6.95898 42.9512 8.99447 42.9512 13.0654C42.9512 13.3447 42.9342 13.624 42.9004 13.9033C42.8665 14.1826 42.8411 14.3646 42.8242 14.4492L33.8486 14.5ZM40.1963 12.5449C40.1963 11.487 39.9678 10.6322 39.5107 9.98047C39.0622 9.32031 38.3428 8.99023 37.3525 8.99023C36.3454 8.99023 35.5456 9.32878 34.9531 10.0059C34.3691 10.6829 34.0348 11.5293 33.9502 12.5449H40.1963ZM46.0742 8C46.2096 7.94922 46.5482 7.84342 47.0898 7.68262C47.64 7.51335 48.2874 7.35254 49.0322 7.2002C49.777 7.03939 50.4795 6.95898 51.1396 6.95898C52.7139 6.95898 53.9072 7.27214 54.7197 7.89844C55.5407 8.52474 55.9512 9.55729 55.9512 10.9961V18.918L58.0332 19.4385V20.873L53.9961 21L53.4502 19.1846C52.8916 19.7432 52.2441 20.2298 51.5078 20.6445C50.7799 21.0508 50.0055 21.2539 49.1846 21.2539C47.9574 21.2539 47.001 20.9154 46.3154 20.2383C45.6299 19.5527 45.2871 18.5921 45.2871 17.3564C45.2871 15.9176 45.8034 14.8893 46.8359 14.2715C47.8685 13.6452 49.3454 13.332 51.2666 13.332H53.3486V11.25C53.3486 10.4883 53.137 9.90853 52.7139 9.51074C52.2907 9.11296 51.6771 8.91406 50.873 8.91406C50.4076 8.91406 49.9801 8.94368 49.5908 9.00293C49.2015 9.06217 48.8926 9.12142 48.6641 9.18066C48.444 9.23991 48.3086 9.27799 48.2578 9.29492L47.8896 11.25H46.2012L46.0742 8ZM51.5332 15.0205C50.2467 15.0205 49.3242 15.194 48.7656 15.541C48.2155 15.888 47.9404 16.4508 47.9404 17.2295C47.9404 17.8219 48.1097 18.2959 48.4482 18.6514C48.7868 19.0068 49.2523 19.1846 49.8447 19.1846C50.4202 19.1846 50.9661 19.028 51.4824 18.7148C51.9987 18.4017 52.4388 18.0632 52.8027 17.6992C53.1667 17.3353 53.3486 17.1364 53.3486 17.1025V15.0205H51.5332ZM64.3809 9.06641C64.8717 8.60091 65.5488 8.13542 66.4121 7.66992C67.2754 7.19596 68.1683 6.95898 69.0908 6.95898C70.8428 6.95898 72.0488 7.70378 72.709 9.19336C73.1406 8.76172 73.7965 8.28353 74.6768 7.75879C75.5654 7.22559 76.5218 6.95898 77.5459 6.95898C78.9339 6.95898 79.9495 7.36947 80.5928 8.19043C81.2445 9.00293 81.5703 10.154 81.5703 11.6436V18.918L83.5254 19.5654V21H77.2793V19.5654L78.9678 18.918V11.8975C78.9678 10.9411 78.8027 10.2471 78.4727 9.81543C78.1426 9.38379 77.5713 9.16797 76.7588 9.16797C76.0986 9.16797 75.4977 9.32454 74.9561 9.6377C74.4229 9.95085 73.9827 10.2894 73.6357 10.6533C73.2887 11.0173 73.1152 11.2161 73.1152 11.25V18.918L74.8164 19.5654V21H68.8242V19.5654L70.5254 18.918V11.8975C70.5254 10.9411 70.3604 10.2471 70.0303 9.81543C69.7002 9.38379 69.1289 9.16797 68.3164 9.16797C67.6562 9.16797 67.0553 9.32454 66.5137 9.6377C65.9805 9.95085 65.5404 10.2894 65.1934 10.6533C64.8464 11.0173 64.6729 11.2161 64.6729 11.25V18.918L66.3613 19.5654V21H59.8613V19.5654L62.0703 18.918V9.29492L59.8613 8.77441V7.35254L64.1523 7.22559L64.3809 9.06641Z" fill="#384F41"/>
<path d="M102.264 10.7295V12.8115H96.2842V18.918L98.8867 19.4385V21H91.3457V19.4385L93.5547 18.918V4.87695L91.3457 4.35645V2.93457L96.2842 2.79492H104.219V7.08594H102.53L101.87 4.87695H96.2842V10.7295H102.264ZM121.383 20.873L117.092 21L116.838 19.1846C116.322 19.6501 115.619 20.1113 114.73 20.5684C113.842 21.0254 112.94 21.2539 112.026 21.2539C110.638 21.2539 109.597 20.8477 108.903 20.0352C108.209 19.2227 107.862 18.0801 107.862 16.6074V9.29492L105.653 8.77441V7.35254L110.465 7.22559V16.3408C110.465 17.2633 110.647 17.9447 111.011 18.3848C111.375 18.8249 111.971 19.0449 112.801 19.0449C113.461 19.0449 114.066 18.8968 114.616 18.6006C115.175 18.2959 115.64 17.9616 116.013 17.5977C116.385 17.2337 116.571 17.0348 116.571 17.001V9.29492L114.362 8.77441V7.35254L119.174 7.22559V18.918L121.383 19.4385V20.873ZM127.604 9.11719C128.094 8.58398 128.674 8.0931 129.343 7.64453C130.02 7.1875 130.752 6.95898 131.539 6.95898C131.92 6.95898 132.28 6.98861 132.618 7.04785C132.965 7.1071 133.249 7.17057 133.469 7.23828C133.689 7.29753 133.824 7.33561 133.875 7.35254L133.748 11.123H132.047L131.666 9.16797C130.803 9.16797 130.058 9.37533 129.432 9.79004C128.805 10.2048 128.293 10.6745 127.896 11.1992V18.918L130.498 19.5654V21H123.084V19.5654L125.293 18.918V9.29492L123.084 8.77441V7.35254L127.375 7.22559L127.604 9.11719ZM139.689 9.06641C140.231 8.60091 140.938 8.13542 141.81 7.66992C142.69 7.19596 143.595 6.95898 144.526 6.95898C145.914 6.95898 146.955 7.3737 147.649 8.20312C148.343 9.02409 148.69 10.1709 148.69 11.6436V18.918L150.633 19.5654V21H144.399V19.5654L146.088 18.918V11.8975C146.088 10.958 145.906 10.2682 145.542 9.82812C145.178 9.38802 144.581 9.16797 143.752 9.16797C143.092 9.16797 142.482 9.32454 141.924 9.6377C141.374 9.95085 140.912 10.2894 140.54 10.6533C140.168 11.0173 139.981 11.2161 139.981 11.25V18.918L141.67 19.5654V21H135.17V19.5654L137.379 18.918V9.29492L135.17 8.77441V7.35254L139.461 7.22559L139.689 9.06641ZM154.149 2.93457C154.149 2.35905 154.314 1.91048 154.645 1.58887C154.975 1.26725 155.372 1.10645 155.838 1.10645C156.964 1.10645 157.526 1.71582 157.526 2.93457C157.526 3.49316 157.353 3.9375 157.006 4.26758C156.659 4.58919 156.27 4.75 155.838 4.75C155.322 4.75 154.911 4.58919 154.606 4.26758C154.302 3.94596 154.149 3.50163 154.149 2.93457ZM159.215 21H152.461V19.5654L154.67 18.918V9.29492L152.461 8.77441V7.35254L157.272 7.22559V18.918L159.215 19.5654V21ZM163.43 19.0703C163.43 19.0872 163.646 19.1338 164.077 19.21C164.509 19.2777 165.021 19.3115 165.613 19.3115C167.568 19.3115 168.55 18.626 168.559 17.2549C168.559 16.6963 168.317 16.2773 167.835 15.998C167.361 15.7103 166.62 15.4098 165.613 15.0967C164.691 14.8005 163.942 14.5169 163.366 14.2461C162.799 13.9668 162.312 13.569 161.906 13.0527C161.5 12.528 161.297 11.8509 161.297 11.0215C161.297 9.7181 161.737 8.71517 162.617 8.0127C163.506 7.31022 164.653 6.95898 166.058 6.95898C166.667 6.95898 167.298 7.01823 167.949 7.13672C168.609 7.24674 169.168 7.36523 169.625 7.49219C170.09 7.61914 170.382 7.70378 170.501 7.74609L170.425 11.25H168.736L168.317 9.21875C168.267 9.20182 168.152 9.16797 167.975 9.11719C167.805 9.06641 167.564 9.01986 167.251 8.97754C166.938 8.93522 166.591 8.91406 166.21 8.91406C164.67 8.91406 163.899 9.49382 163.899 10.6533C163.899 11.2119 164.145 11.6436 164.636 11.9482C165.135 12.2445 165.884 12.5576 166.883 12.8877C167.78 13.2008 168.516 13.4928 169.092 13.7637C169.667 14.026 170.154 14.4111 170.552 14.9189C170.95 15.4183 171.148 16.0488 171.148 16.8105C171.148 18.2493 170.607 19.3496 169.523 20.1113C168.44 20.873 167.077 21.2539 165.436 21.2539C164.725 21.2539 164.064 21.2116 163.455 21.127C162.846 21.0423 162.359 20.9577 161.995 20.873C161.631 20.7884 161.407 20.7249 161.322 20.6826V16.8359H163.15L163.43 19.0703ZM177.775 8.83789C178.334 8.36393 179.02 7.93229 179.832 7.54297C180.645 7.15365 181.474 6.95898 182.32 6.95898C183.708 6.95898 184.749 7.3737 185.443 8.20312C186.137 9.02409 186.484 10.1709 186.484 11.6436V18.918L188.439 19.5654V21H182.193V19.5654L183.882 18.9434V11.8975C183.882 10.958 183.708 10.2682 183.361 9.82812C183.014 9.38802 182.435 9.16797 181.622 9.16797C180.962 9.16797 180.344 9.32454 179.769 9.6377C179.201 9.95085 178.728 10.2894 178.347 10.6533C177.966 11.0173 177.775 11.2161 177.775 11.25V18.918L179.464 19.5654V21H172.964V19.5654L175.173 18.918V3.06152L172.964 2.54102V1.10645L177.775 0.979492V8.83789Z" fill="black"/>
<path d="M102.264 10.7295V12.8115H96.2842V18.918L98.8867 19.4385V21H91.3457V19.4385L93.5547 18.918V4.87695L91.3457 4.35645V2.93457L96.2842 2.79492H104.219V7.08594H102.53L101.87 4.87695H96.2842V10.7295H102.264ZM121.383 20.873L117.092 21L116.838 19.1846C116.322 19.6501 115.619 20.1113 114.73 20.5684C113.842 21.0254 112.94 21.2539 112.026 21.2539C110.638 21.2539 109.597 20.8477 108.903 20.0352C108.209 19.2227 107.862 18.0801 107.862 16.6074V9.29492L105.653 8.77441V7.35254L110.465 7.22559V16.3408C110.465 17.2633 110.647 17.9447 111.011 18.3848C111.375 18.8249 111.971 19.0449 112.801 19.0449C113.461 19.0449 114.066 18.8968 114.616 18.6006C115.175 18.2959 115.64 17.9616 116.013 17.5977C116.385 17.2337 116.571 17.0348 116.571 17.001V9.29492L114.362 8.77441V7.35254L119.174 7.22559V18.918L121.383 19.4385V20.873ZM127.604 9.11719C128.094 8.58398 128.674 8.0931 129.343 7.64453C130.02 7.1875 130.752 6.95898 131.539 6.95898C131.92 6.95898 132.28 6.98861 132.618 7.04785C132.965 7.1071 133.249 7.17057 133.469 7.23828C133.689 7.29753 133.824 7.33561 133.875 7.35254L133.748 11.123H132.047L131.666 9.16797C130.803 9.16797 130.058 9.37533 129.432 9.79004C128.805 10.2048 128.293 10.6745 127.896 11.1992V18.918L130.498 19.5654V21H123.084V19.5654L125.293 18.918V9.29492L123.084 8.77441V7.35254L127.375 7.22559L127.604 9.11719ZM139.689 9.06641C140.231 8.60091 140.938 8.13542 141.81 7.66992C142.69 7.19596 143.595 6.95898 144.526 6.95898C145.914 6.95898 146.955 7.3737 147.649 8.20312C148.343 9.02409 148.69 10.1709 148.69 11.6436V18.918L150.633 19.5654V21H144.399V19.5654L146.088 18.918V11.8975C146.088 10.958 145.906 10.2682 145.542 9.82812C145.178 9.38802 144.581 9.16797 143.752 9.16797C143.092 9.16797 142.482 9.32454 141.924 9.6377C141.374 9.95085 140.912 10.2894 140.54 10.6533C140.168 11.0173 139.981 11.2161 139.981 11.25V18.918L141.67 19.5654V21H135.17V19.5654L137.379 18.918V9.29492L135.17 8.77441V7.35254L139.461 7.22559L139.689 9.06641ZM154.149 2.93457C154.149 2.35905 154.314 1.91048 154.645 1.58887C154.975 1.26725 155.372 1.10645 155.838 1.10645C156.964 1.10645 157.526 1.71582 157.526 2.93457C157.526 3.49316 157.353 3.9375 157.006 4.26758C156.659 4.58919 156.27 4.75 155.838 4.75C155.322 4.75 154.911 4.58919 154.606 4.26758C154.302 3.94596 154.149 3.50163 154.149 2.93457ZM159.215 21H152.461V19.5654L154.67 18.918V9.29492L152.461 8.77441V7.35254L157.272 7.22559V18.918L159.215 19.5654V21ZM163.43 19.0703C163.43 19.0872 163.646 19.1338 164.077 19.21C164.509 19.2777 165.021 19.3115 165.613 19.3115C167.568 19.3115 168.55 18.626 168.559 17.2549C168.559 16.6963 168.317 16.2773 167.835 15.998C167.361 15.7103 166.62 15.4098 165.613 15.0967C164.691 14.8005 163.942 14.5169 163.366 14.2461C162.799 13.9668 162.312 13.569 161.906 13.0527C161.5 12.528 161.297 11.8509 161.297 11.0215C161.297 9.7181 161.737 8.71517 162.617 8.0127C163.506 7.31022 164.653 6.95898 166.058 6.95898C166.667 6.95898 167.298 7.01823 167.949 7.13672C168.609 7.24674 169.168 7.36523 169.625 7.49219C170.09 7.61914 170.382 7.70378 170.501 7.74609L170.425 11.25H168.736L168.317 9.21875C168.267 9.20182 168.152 9.16797 167.975 9.11719C167.805 9.06641 167.564 9.01986 167.251 8.97754C166.938 8.93522 166.591 8.91406 166.21 8.91406C164.67 8.91406 163.899 9.49382 163.899 10.6533C163.899 11.2119 164.145 11.6436 164.636 11.9482C165.135 12.2445 165.884 12.5576 166.883 12.8877C167.78 13.2008 168.516 13.4928 169.092 13.7637C169.667 14.026 170.154 14.4111 170.552 14.9189C170.95 15.4183 171.148 16.0488 171.148 16.8105C171.148 18.2493 170.607 19.3496 169.523 20.1113C168.44 20.873 167.077 21.2539 165.436 21.2539C164.725 21.2539 164.064 21.2116 163.455 21.127C162.846 21.0423 162.359 20.9577 161.995 20.873C161.631 20.7884 161.407 20.7249 161.322 20.6826V16.8359H163.15L163.43 19.0703ZM177.775 8.83789C178.334 8.36393 179.02 7.93229 179.832 7.54297C180.645 7.15365 181.474 6.95898 182.32 6.95898C183.708 6.95898 184.749 7.3737 185.443 8.20312C186.137 9.02409 186.484 10.1709 186.484 11.6436V18.918L188.439 19.5654V21H182.193V19.5654L183.882 18.9434V11.8975C183.882 10.958 183.708 10.2682 183.361 9.82812C183.014 9.38802 182.435 9.16797 181.622 9.16797C180.962 9.16797 180.344 9.32454 179.769 9.6377C179.201 9.95085 178.728 10.2894 178.347 10.6533C177.966 11.0173 177.775 11.2161 177.775 11.25V18.918L179.464 19.5654V21H172.964V19.5654L175.173 18.918V3.06152L172.964 2.54102V1.10645L177.775 0.979492V8.83789Z" fill="#D4702A"/>
</svg>
